<?xml version="1.0" encoding="UTF-8" standalone="no"?>
<!-- Created with Inkscape (http://www.inkscape.org/) -->

<svg
   xmlns:dc="http://purl.org/dc/elements/1.1/"
   xmlns:cc="http://creativecommons.org/ns#"
   xmlns:rdf="http://www.w3.org/1999/02/22-rdf-syntax-ns#"
   xmlns:svg="http://www.w3.org/2000/svg"
   xmlns="http://www.w3.org/2000/svg"
   xmlns:sodipodi="http://sodipodi.sourceforge.net/DTD/sodipodi-0.dtd"
   xmlns:inkscape="http://www.inkscape.org/namespaces/inkscape"
   width="140"
   height="220"
   id="svg2"
   version="1.1"
   inkscape:version="0.48.4 r9939"
   sodipodi:docname="bottle.svg"
   inkscape:export-filename="/home/elena/Documents/Office/Inkscape/My works/dribble/Gouter/my_bottle.png"
   inkscape:export-xdpi="90"
   inkscape:export-ydpi="90">
  <defs
     id="defs4" />
  <sodipodi:namedview
     id="base"
     pagecolor="#ffffff"
     bordercolor="#666666"
     borderopacity="1.0"
     inkscape:pageopacity="1"
     inkscape:pageshadow="2"
     inkscape:zoom="3.959798"
     inkscape:cx="113.7265"
     inkscape:cy="129.12159"
     inkscape:document-units="px"
     inkscape:current-layer="layer1"
     showgrid="true"
     inkscape:window-width="1299"
     inkscape:window-height="744"
     inkscape:window-x="67"
     inkscape:window-y="24"
     inkscape:window-maximized="1"
     showguides="true"
     inkscape:guide-bbox="true">
    <inkscape:grid
       type="xygrid"
       id="grid2985"
       empspacing="10"
       visible="true"
       enabled="true"
       snapvisiblegridlinesonly="true" />
  </sodipodi:namedview>
  <metadata
     id="metadata7">
    <rdf:RDF>
      <cc:Work
         rdf:about="">
        <dc:format>image/svg+xml</dc:format>
        <dc:type
           rdf:resource="http://purl.org/dc/dcmitype/StillImage" />
        <dc:title></dc:title>
      </cc:Work>
    </rdf:RDF>
  </metadata>
  <g
     inkscape:label="Layer 1"
     inkscape:groupmode="layer"
     id="layer1"
     transform="translate(0,-832.36218)">
    <path
       style="fill:#1e72b9;stroke:#1e72b9;stroke-width:5;stroke-miterlimit:4;stroke-opacity:1;stroke-dasharray:none;fill-opacity:1"
       d="m 50,10 40,0 0,10 -40,0 z"
       id="path3006"
       inkscape:connector-curvature="0"
       transform="translate(0,832.36218)" />
    <path
       style="fill:#1e72b9;fill-opacity:1;stroke:#1e72b9;stroke-width:5;stroke-miterlimit:4;stroke-opacity:1;stroke-dasharray:none"
       d="m 110,40 0,30 20,0 0,-40 c 0,0 -10,-10 -40,-10 -10,0 -40,0 -40,0 0,0 -30,0 -40,10 0,0 0,25.775542 0,40 20,0 20,0 20,0 l 0,-30 c 33.663248,-11.519289 56.855898,-7.1469 80,0 z"
       id="path3776"
       inkscape:connector-curvature="0"
       transform="translate(0,832.36218)"
       sodipodi:nodetypes="ccccccccccc" />
    <path
       style="fill:#1e72b9;fill-opacity:1;stroke:#1e72b9;stroke-width:5;stroke-miterlimit:4;stroke-opacity:1;stroke-dasharray:none"
       d="m 110.00001,1022.3622 -0.50508,-31.7132 20,0 0.50507,51.7132 c -30,0 -90,0 -120,0 0,0 -0.5050767,-37.4887 -0.5050767,-51.7132 19.9999997,0 19.9999997,0 19.9999997,0 L 30,1022.3622 c 40,0 40,0 80.00001,0 z"
       id="path3780"
       inkscape:connector-curvature="0"
       sodipodi:nodetypes="ccccccccc" />
    <g
       id="g3848"
       transform="translate(11.999985,0)">
      <path
         sodipodi:nodetypes="cc"
         inkscape:connector-curvature="0"
         id="path3784"
         d="m 105.13668,922.36218 0,50"
         style="fill:none;stroke:#1e72b9;stroke-width:5;stroke-miterlimit:4;stroke-opacity:1;stroke-dasharray:none" />
      <path
         sodipodi:nodetypes="cssc"
         inkscape:connector-curvature="0"
         id="path3786"
         d="m 104.00002,925.36218 c 15,-4 15,18 2.13666,17 0,0 8.86322,2 8.86334,10 1.3e-4,10.99993 -3.00001,19 4,17"
         style="fill:none;stroke:#1e72b9;stroke-width:5;stroke-miterlimit:4;stroke-opacity:1;stroke-dasharray:none" />
    </g>
    <path
       style="fill:none;stroke:#1e72b9;stroke-width:5;stroke-miterlimit:4;stroke-opacity:1;stroke-dasharray:none"
       d="m 32.428228,945.36218 c 0,0 0,26 5,26 5,0 6,-16 6,-26 0,-29 -11,-29 -11,0 z"
       id="path3788"
       inkscape:connector-curvature="0"
       sodipodi:nodetypes="cssc" />
    <g
       id="g3816"
       transform="translate(2.136678,0)">
      <path
         sodipodi:nodetypes="cccscc"
         inkscape:connector-curvature="0"
         id="path3782"
         d="m 21,932.36218 c 0,0 1.45356,-9 -6,-9 -7,0 -6.25,19.83634 -6.25,29.53571 0,0 0.25,18.46429 6.25,18.46429 7.45356,0 6,-19 6,-19 l 0,19"
         style="fill:none;stroke:#1e72b9;stroke-width:5;stroke-miterlimit:4;stroke-opacity:1;stroke-dasharray:none" />
      <path
         inkscape:connector-curvature="0"
         id="path3792"
         d="m 13,952.36218 9,0"
         style="fill:none;stroke:#1e72b9;stroke-width:2;stroke-miterlimit:4;stroke-opacity:1;stroke-dasharray:none"
         sodipodi:nodetypes="cc" />
    </g>
    <g
       id="g3802"
       transform="translate(13.782448,0)">
      <path
         inkscape:connector-curvature="0"
         id="path3798"
         d="m 66,92 0,48"
         style="fill:none;stroke:#1e72b9;stroke-width:5;stroke-miterlimit:4;stroke-opacity:1;stroke-dasharray:none"
         sodipodi:nodetypes="cc"
         transform="translate(0,832.36218)" />
      <path
         inkscape:connector-curvature="0"
         id="path3800"
         d="m 73,923.36218 c -2.884399,0 -8.508121,0 -14,0"
         style="fill:none;stroke:#1e72b9;stroke-width:5;stroke-miterlimit:4;stroke-opacity:1;stroke-dasharray:none"
         sodipodi:nodetypes="cc" />
    </g>
    <g
       id="g3810"
       transform="translate(-92.361873,-20.178571)">
      <path
         inkscape:connector-curvature="0"
         id="path3806"
         d="m 200.32143,111.17857 -12,0 0,48 12,0"
         style="fill:none;stroke:#1e72b9;stroke-width:5;stroke-miterlimit:4;stroke-opacity:1;stroke-dasharray:none"
         sodipodi:nodetypes="cccc"
         transform="translate(0,832.36218)" />
      <path
         inkscape:connector-curvature="0"
         id="path3808"
         d="m 200.32143,966.54075 -12,0"
         style="fill:none;stroke:#1e72b9;stroke-width:5;stroke-miterlimit:4;stroke-opacity:1;stroke-dasharray:none"
         sodipodi:nodetypes="cc" />
    </g>
    <g
       id="g3881"
       transform="translate(-0.53133795,0)">
      <path
         sodipodi:nodetypes="cscc"
         inkscape:connector-curvature="0"
         id="path3790"
         d="m 53.136677,922.36218 c 0,0 0,28 0,48 0,2 11,2 11,0 0,-20 0,-48 0,-48"
         style="fill:none;stroke:#1e72b9;stroke-width:5;stroke-miterlimit:4;stroke-opacity:1;stroke-dasharray:none" />
      <path
         sodipodi:nodetypes="cccc"
         inkscape:connector-curvature="0"
         id="path3854"
         d="m 62.136677,921.36218 -2.363323,-5 -2,0 -2.636677,5"
         style="fill:none;stroke:#1e72b9;stroke-width:5;stroke-miterlimit:4;stroke-opacity:1;stroke-dasharray:none" />
    </g>
    <g
       id="g3860"
       transform="matrix(0.61722148,0,0,0.61722148,38.521705,380.22119)">
      <g
         id="g3801">
        <path
           transform="translate(0,832.36218)"
           style="fill:none;stroke:#1e72b9;stroke-width:1.62016396;stroke-miterlimit:4;stroke-opacity:1;stroke-dasharray:none"
           d="m 32,140 -2,0 0,10 2,0"
           id="path3856"
           inkscape:connector-curvature="0"
           sodipodi:nodetypes="cccc" />
        <path
           transform="translate(0,832.36218)"
           sodipodi:nodetypes="cc"
           style="fill:none;stroke:#1e72b9;stroke-width:1.62016396;stroke-miterlimit:4;stroke-opacity:1;stroke-dasharray:none"
           d="m 30,145 2,0"
           id="path3858"
           inkscape:connector-curvature="0" />
      </g>
    </g>
    <path
       style="fill:none;stroke:#1e72b9;stroke-width:1;stroke-miterlimit:4;stroke-opacity:1;stroke-dasharray:none"
       d="m 61.447074,982.50845 c 0,0 -1.851664,-0.61722 -1.851664,1.23444 0,1.23444 1.851664,0 1.851664,1.85167 0,1.23444 -1.851664,1.23444 -1.851664,0"
       id="path3864"
       inkscape:connector-curvature="0"
       sodipodi:nodetypes="cssc" />
    <g
       id="g3876"
       transform="matrix(0.61722148,0,0,0.61722148,38.080832,377.6354)">
      <g
         id="g3872">
        <g
           id="g3797">
          <path
             transform="translate(0,832.36218)"
             sodipodi:nodetypes="cc"
             inkscape:connector-curvature="0"
             id="path3868"
             d="m 42,144 c 0.495716,4.40868 -1.484998,11.46349 3,10"
             style="fill:none;stroke:#1e72b9;stroke-width:1.62016396;stroke-miterlimit:4;stroke-opacity:1;stroke-dasharray:none" />
          <path
             transform="translate(0,832.36218)"
             inkscape:connector-curvature="0"
             id="path3870"
             d="m 40,148 4,0"
             style="fill:none;stroke:#1e72b9;stroke-width:1.62016396;stroke-miterlimit:4;stroke-opacity:1;stroke-dasharray:none"
             sodipodi:nodetypes="cc" />
        </g>
      </g>
    </g>
    <path
       style="fill:none;stroke:#1e72b9;stroke-width:1;stroke-miterlimit:4;stroke-opacity:1;stroke-dasharray:none"
       d="m 67.795634,986.55622 -0.617221,0"
       id="path3881"
       inkscape:connector-curvature="0" />
    <path
       style="fill:none;stroke:#1e72b9;stroke-width:1;stroke-miterlimit:4;stroke-opacity:1;stroke-dasharray:none"
       d="m 69.118248,982.65179 c 0,0 2.468886,-3.08611 2.468886,0 0,1.85166 -2.468886,3.70333 -2.468886,3.70333 l 2.468886,0"
       id="path3883"
       inkscape:connector-curvature="0"
       sodipodi:nodetypes="cscc" />
    <path
       style="fill:none;stroke:#1e72b9;stroke-width:1;stroke-miterlimit:4;stroke-opacity:1;stroke-dasharray:none"
       d="m 72.909752,984.08734 c 0,0 3.703329,-4.93777 3.703329,0 0,4.93777 -3.703329,0 -3.703329,0 z"
       id="path3885"
       inkscape:connector-curvature="0"
       sodipodi:nodetypes="czc" />
    <path
       style="fill:none;stroke:#1e72b9;stroke-width:1;stroke-miterlimit:4;stroke-opacity:1;stroke-dasharray:none"
       d="m 77.935699,982.8529 1.851665,-1.85167 0,5.55499"
       id="path3887"
       inkscape:connector-curvature="0" />
    <path
       inkscape:connector-curvature="0"
       id="path3889"
       d="m 81.109978,982.8529 1.851665,-1.85167 0,5.55499"
       style="fill:none;stroke:#1e72b9;stroke-width:1;stroke-miterlimit:4;stroke-opacity:1;stroke-dasharray:none" />
  </g>
</svg>
