<?xml version="1.0" encoding="UTF-8" standalone="no"?>
<!-- Created with Inkscape (http://www.inkscape.org/) -->

<svg
   xmlns:dc="http://purl.org/dc/elements/1.1/"
   xmlns:cc="http://creativecommons.org/ns#"
   xmlns:rdf="http://www.w3.org/1999/02/22-rdf-syntax-ns#"
   xmlns:svg="http://www.w3.org/2000/svg"
   xmlns="http://www.w3.org/2000/svg"
   xmlns:sodipodi="http://sodipodi.sourceforge.net/DTD/sodipodi-0.dtd"
   xmlns:inkscape="http://www.inkscape.org/namespaces/inkscape"
   width="120"
   height="80"
   id="svg2"
   version="1.1"
   inkscape:version="0.48.4 r9939"
   sodipodi:docname="dog.svg"
   inkscape:export-filename="/home/elena/Documents/Office/Inkscape/My works/dribble/Dog/my_dog.png"
   inkscape:export-xdpi="90"
   inkscape:export-ydpi="90">
  <defs
     id="defs4" />
  <sodipodi:namedview
     id="base"
     pagecolor="#ffffff"
     bordercolor="#666666"
     borderopacity="1.0"
     inkscape:pageopacity="1"
     inkscape:pageshadow="2"
     inkscape:zoom="4"
     inkscape:cx="29.186275"
     inkscape:cy="24.612534"
     inkscape:document-units="px"
     inkscape:current-layer="layer1"
     showgrid="true"
     inkscape:window-width="1299"
     inkscape:window-height="744"
     inkscape:window-x="67"
     inkscape:window-y="24"
     inkscape:window-maximized="1">
    <inkscape:grid
       type="xygrid"
       id="grid2985"
       empspacing="8"
       visible="true"
       enabled="true"
       snapvisiblegridlinesonly="true" />
  </sodipodi:namedview>
  <metadata
     id="metadata7">
    <rdf:RDF>
      <cc:Work
         rdf:about="">
        <dc:format>image/svg+xml</dc:format>
        <dc:type
           rdf:resource="http://purl.org/dc/dcmitype/StillImage" />
        <dc:title></dc:title>
      </cc:Work>
    </rdf:RDF>
  </metadata>
  <g
     inkscape:label="Layer 1"
     inkscape:groupmode="layer"
     id="layer1"
     transform="translate(0,-972.36218)">
    <path
       style="fill:#e53924;fill-opacity:1;stroke:#e53924;stroke-width:2;stroke-miterlimit:4;stroke-opacity:1;stroke-dasharray:none"
       d="m 39,996.36218 c 3,8.00002 4.306347,2.4679 13,12.00002 -2,1 -13.292893,14.8839 -13.292893,25.8839 1.663846,0.055 3,0 4,0 1.016911,0 2,-1 0,-1 1.887362,-20.303 41.024021,-25.0201 41,1 1.676194,0 3,0 4,0 1,0 1,-1 0,-1 -6.546812,-23.8787 4.777589,-26.171 7,-27 7.171803,-2.7739 11.000003,2 14.000003,-6 2,-1.00004 2,-2.00004 0,-3.00004 -2,0 -4,0 -6,0 1.74891,-5.78675 -3.22265,-8.6463 -12.000003,-6 -1,-8 -4,-10 -4,-10 -6,2 -2.707107,15.11612 -2.707107,15.11612 -8.948407,8.67062 -36.428102,12.77612 -45,0 z"
       id="path2987"
       inkscape:connector-curvature="0"
       sodipodi:nodetypes="cccsccsccccccccc" />
    <path
       style="fill:#ffffff;fill-opacity:1;stroke:#ffffff;stroke-width:2;stroke-miterlimit:4;stroke-opacity:1;stroke-dasharray:none"
       d="m 98.05357,995.09433 c -1,0 -1,1 0,1 1,0 1,-1 0,-1 z"
       id="path2984"
       inkscape:connector-curvature="0"
       sodipodi:nodetypes="csc" />
  </g>
</svg>
