<?xml version="1.0" encoding="UTF-8" standalone="no"?>
<!-- Created with Inkscape (http://www.inkscape.org/) -->

<svg
   xmlns:dc="http://purl.org/dc/elements/1.1/"
   xmlns:cc="http://creativecommons.org/ns#"
   xmlns:rdf="http://www.w3.org/1999/02/22-rdf-syntax-ns#"
   xmlns:svg="http://www.w3.org/2000/svg"
   xmlns="http://www.w3.org/2000/svg"
   xmlns:sodipodi="http://sodipodi.sourceforge.net/DTD/sodipodi-0.dtd"
   xmlns:inkscape="http://www.inkscape.org/namespaces/inkscape"
   width="400"
   height="300"
   id="svg2"
   version="1.1"
   inkscape:version="0.48.4 r9939"
   sodipodi:docname="family_blazon.svg"
   inkscape:export-filename="/home/elena/Documents/Office/Inkscape/My works/dribble/Blazon/my_family_png_blazon.png"
   inkscape:export-xdpi="90"
   inkscape:export-ydpi="90">
  <defs
     id="defs4" />
  <sodipodi:namedview
     id="base"
     pagecolor="#ffffff"
     bordercolor="#666666"
     borderopacity="1.0"
     inkscape:pageopacity="1"
     inkscape:pageshadow="2"
     inkscape:zoom="0.7"
     inkscape:cx="-123.31936"
     inkscape:cy="119.74937"
     inkscape:document-units="px"
     inkscape:current-layer="layer1"
     showgrid="true"
     inkscape:window-width="1299"
     inkscape:window-height="744"
     inkscape:window-x="67"
     inkscape:window-y="24"
     inkscape:window-maximized="1"
     showguides="true"
     inkscape:guide-bbox="true">
    <inkscape:grid
       type="xygrid"
       id="grid2985"
       empspacing="9"
       visible="true"
       enabled="true"
       snapvisiblegridlinesonly="true" />
  </sodipodi:namedview>
  <metadata
     id="metadata7">
    <rdf:RDF>
      <cc:Work
         rdf:about="">
        <dc:format>image/svg+xml</dc:format>
        <dc:type
           rdf:resource="http://purl.org/dc/dcmitype/StillImage" />
        <dc:title />
      </cc:Work>
    </rdf:RDF>
  </metadata>
  <g
     inkscape:label="Layer 1"
     inkscape:groupmode="layer"
     id="layer1"
     transform="translate(0,-752.36218)">
    <path
       sodipodi:nodetypes="cccc"
       inkscape:connector-curvature="0"
       id="path2984"
       d="m 129,818.86218 142,0 c 0,153 -9,123.5 -70,167 -61.86787,-45.29732 -72,-14 -72,-167 z"
       style="fill:#000094;fill-opacity:1;stroke:#000094;stroke-width:2;stroke-miterlimit:4;stroke-opacity:1;stroke-dasharray:none" />
    <path
       style="fill:#ffffff;fill-opacity:1;stroke:#ffffff;stroke-width:2;stroke-miterlimit:4;stroke-opacity:1;stroke-dasharray:none"
       d="m 140.58412,833.36726 115,0 c 0,17 0.35714,28 0.35714,40 -3,45 -1.94126,61.99492 -22.94126,77.99492 -8,6 -25.91316,15.09372 -33,20 -6.64286,-5 -19.25359,-13.25248 -29,-20 -26,-18 -27,-34 -30.05874,-77.99492 0,-12 -0.35714,-18 -0.35714,-40 z"
       id="path2987"
       inkscape:connector-curvature="0"
       sodipodi:nodetypes="cccccscc" />
    <path
       style="fill:#000094;fill-opacity:1;stroke:#000094;stroke-width:2;stroke-miterlimit:4;stroke-opacity:1;stroke-dasharray:none"
       d="m 155.5,847.36218 0,90 89,0 0,-90 -17,0 0,72 -19,0 c 0,-26 0,-53 0,-79 l -4,5 -5,-6 -5,6 -4,-5 1,79 -19,0 0,-72 z"
       id="path3880"
       inkscape:connector-curvature="0"
       sodipodi:nodetypes="cccccccccccccccc" />
    <g
       id="g3964">
      <g
         transform="translate(-2.1515315,-0.28836722)"
         id="g3902">
        <path
           style="fill:#e56c24;fill-opacity:1;stroke:#e56c24;stroke-width:2;stroke-miterlimit:4;stroke-opacity:1;stroke-dasharray:none"
           d="m 252,873.36218 c -3,8 -10,15 -23,20 2,3 3.73369,15.2591 8,24 0.25,0.5122 -5,0 -7,0 -2,0 -1.75,-0.4878 1,-2 -5.75,-6.4878 -11,-14 -12,-16 -10,0 -23,0 -30,0 -5,9 -5,9 -9,18 -1,0 -4,0 -6,0 -1.82342,0 -0.30306,-2.13867 0.69694,-2.13867 7,-15 7,-25 -2,-33 -3,4 -11,-1.7706 -11,-3 -2,-1 -2,-2 1,-4 4,-7 3.30306,-7.86133 10,-8 3.30306,-4.86133 4.75,-7.51224 4.75,-7.51224 3.25,2.51224 -0.75,9.51224 -0.75,9.51224 8.22138,16.65582 12.30306,7.13867 28.30306,4.13867 15.12294,-1.2133 17.14133,8.82394 25,9 8.11718,0.0185 17.87295,-6.93647 22,-9 z"
           id="path2987-4"
           inkscape:connector-curvature="0"
           sodipodi:nodetypes="ccscccccscccccccccc" />
        <path
           style="fill:#ffffff;fill-opacity:1;stroke:#ffffff;stroke-width:2.04476786;stroke-miterlimit:4;stroke-opacity:1;stroke-dasharray:none"
           d="m 168.15153,873.65055 c -1,0 -1,2 0,2 1,0 1,-2 0,-2 z"
           id="path3780"
           inkscape:connector-curvature="0"
           sodipodi:nodetypes="csc" />
      </g>
      <path
         sodipodi:nodetypes="sssss"
         inkscape:connector-curvature="0"
         id="path3906"
         d="m 171.6699,883.98452 c 0.76011,-0.1876 8.33497,-5.98128 8,-9 -0.10743,-0.96817 1.61835,-0.003 1,1 -3.05987,4.96358 -6,7 -9,10 -1,1 -1.37301,-1.66112 0,-2 z"
         style="fill:#000094;fill-opacity:1;stroke:#000094;stroke-width:2;stroke-miterlimit:4;stroke-opacity:1;stroke-dasharray:none" />
      <g
         transform="translate(0.8356877,-4.2527431)"
         id="g3898">
        <path
           sodipodi:nodetypes="ccc"
           inkscape:connector-curvature="0"
           id="path3770"
           d="m 165.19162,889.48401 c -9,0 -10,13 0,13 8,0 9,-13 0,-13 z"
           style="fill:#ffffff;fill-opacity:1;stroke:#ffffff;stroke-width:2;stroke-miterlimit:4;stroke-opacity:1;stroke-dasharray:none" />
        <path
           style="fill:#000094;fill-opacity:1;stroke:#000094;stroke-width:2;stroke-miterlimit:4;stroke-opacity:1;stroke-dasharray:none"
           d="m 160.22046,892.52351 0.1929,6.9605 9,0 0,-7 -1,0 0,6 -3,0 0,-6 -1,0 0,6 -3,0 0,-6 z"
           id="path3892"
           inkscape:connector-curvature="0"
           sodipodi:nodetypes="ccccccccccccc" />
      </g>
    </g>
    <path
       style="fill:#ffffff;fill-opacity:1;stroke:#ffffff;stroke-width:1;stroke-miterlimit:4;stroke-opacity:1;stroke-dasharray:none"
       d="m 161,127 7,-2"
       id="path3928"
       inkscape:connector-curvature="0"
       transform="translate(0,752.36218)"
       sodipodi:nodetypes="cc" />
    <path
       sodipodi:nodetypes="cc"
       inkscape:connector-curvature="0"
       id="path3930"
       d="m 161,879.36218 8,0"
       style="fill:#ffffff;fill-opacity:1;stroke:#ffffff;stroke-width:1;stroke-miterlimit:4;stroke-opacity:1;stroke-dasharray:none" />
    <path
       style="fill:#ffffff;fill-opacity:1;stroke:#ffffff;stroke-width:1;stroke-miterlimit:4;stroke-opacity:1;stroke-dasharray:none"
       d="m 161,879.36218 7,2"
       id="path3938"
       inkscape:connector-curvature="0"
       sodipodi:nodetypes="cc" />
  </g>
</svg>
