<?xml version="1.0" encoding="UTF-8" standalone="no"?>
<!-- Created with Inkscape (http://www.inkscape.org/) -->

<svg
   xmlns:dc="http://purl.org/dc/elements/1.1/"
   xmlns:cc="http://creativecommons.org/ns#"
   xmlns:rdf="http://www.w3.org/1999/02/22-rdf-syntax-ns#"
   xmlns:svg="http://www.w3.org/2000/svg"
   xmlns="http://www.w3.org/2000/svg"
   xmlns:sodipodi="http://sodipodi.sourceforge.net/DTD/sodipodi-0.dtd"
   xmlns:inkscape="http://www.inkscape.org/namespaces/inkscape"
   width="400"
   height="300"
   id="svg2"
   version="1.1"
   inkscape:version="0.48.4 r9939"
   sodipodi:docname="fox_v.svg"
   inkscape:export-filename="/home/elena/Documents/Office/Inkscape/My works/dribble/Fox_v/fox_v.png"
   inkscape:export-xdpi="90"
   inkscape:export-ydpi="90">
  <defs
     id="defs4" />
  <sodipodi:namedview
     id="base"
     pagecolor="#e4e4e4"
     bordercolor="#666666"
     borderopacity="1.0"
     inkscape:pageopacity="1"
     inkscape:pageshadow="2"
     inkscape:zoom="1.4"
     inkscape:cx="152.60212"
     inkscape:cy="184.23954"
     inkscape:document-units="px"
     inkscape:current-layer="layer1"
     showgrid="true"
     inkscape:window-width="1299"
     inkscape:window-height="744"
     inkscape:window-x="67"
     inkscape:window-y="24"
     inkscape:window-maximized="1">
    <inkscape:grid
       type="xygrid"
       id="grid2985"
       empspacing="10"
       visible="true"
       enabled="false"
       snapvisiblegridlinesonly="true" />
    <inkscape:grid
       type="xygrid"
       id="grid2987"
       empspacing="5"
       visible="true"
       enabled="true"
       snapvisiblegridlinesonly="true" />
    <inkscape:grid
       type="xygrid"
       id="grid2989"
       empspacing="5"
       visible="true"
       enabled="true"
       snapvisiblegridlinesonly="true" />
  </sodipodi:namedview>
  <metadata
     id="metadata7">
    <rdf:RDF>
      <cc:Work
         rdf:about="">
        <dc:format>image/svg+xml</dc:format>
        <dc:type
           rdf:resource="http://purl.org/dc/dcmitype/StillImage" />
        <dc:title></dc:title>
      </cc:Work>
    </rdf:RDF>
  </metadata>
  <g
     inkscape:label="Layer 1"
     inkscape:groupmode="layer"
     id="layer1"
     transform="translate(0,-752.36218)">
    <g
       id="g2993"
       transform="matrix(1.4142856,0,0,1.2514621,-164.82143,-202.64517)">
      <path
         style="fill:#939a93;fill-opacity:1;stroke:none"
         d="m 190,892.36218 200,0 -100,-120 z"
         id="path3780"
         inkscape:connector-curvature="0"
         sodipodi:nodetypes="cccc" />
      <path
         sodipodi:nodetypes="cccccc"
         inkscape:connector-curvature="0"
         id="path3782"
         d="m 290,770.21932 100,122.14286 -60,0 -20,-72.14286 -10,12.14286 z"
         style="fill:#767f76;fill-opacity:1;stroke:none" />
      <path
         style="fill:#e5e6e5;fill-opacity:1;stroke:none"
         d="m 260,812.36218 30.71429,-34.28571 20,20 C 300,792.36218 300,802.36218 300,812.36218 l -10,-20 z"
         id="path3792"
         inkscape:connector-curvature="0"
         sodipodi:nodetypes="cccccc" />
    </g>
    <g
       id="g3970"
       transform="matrix(1.1678571,0,0,0.97619048,-4.4901786,18.618317)">
      <path
         sodipodi:nodetypes="cccc"
         inkscape:connector-curvature="0"
         id="path3010"
         d="m 26.75,901.96931 200,0 -100,-120 z"
         style="fill:#939a93;fill-opacity:1;stroke:none" />
      <path
         style="fill:#767f76;fill-opacity:1;stroke:none"
         d="m 126.75,781.96931 c 30,30 60,80 60,80 l -30,-30 -10,10 -10,-20 z"
         id="path3788"
         inkscape:connector-curvature="0"
         sodipodi:nodetypes="cccccc" />
      <path
         sodipodi:nodetypes="ccccccc"
         inkscape:connector-curvature="0"
         id="path3790"
         d="m 96.75,821.96931 30,-30 20,20 -10,0 -10,10 -10,-10 z"
         style="fill:#e5e6e5;fill-opacity:1;stroke:none" />
    </g>
    <path
       style="fill:#ae7b3e;fill-opacity:1;stroke:#000000;stroke-width:3;stroke-linecap:butt;stroke-linejoin:miter;stroke-miterlimit:4;stroke-opacity:1;stroke-dasharray:none"
       d="m 156.75,891.96931 c 50,-40 100,-35 120,-20 40,-20 -40,-85 95,-105 -30,30 20,100 -90,115 38.87622,6.29035 25,50 65,30 20,10 5,10 45,15 -10,15 -29.48364,10.33414 -43,3 -30,20 -22,42 -72,12 -20,-15 -81.44644,15.2619 -100,40 -14.70565,19.60759 -40,29.99999 -40,39.99999 0,10 -40,20 -40,20 5.74966,-5.7497 10,-10 20,-20 15.8114,-15.8113 5.71871,-50.7187 10,-54.99999 -35.778616,59.18789 -32.835808,46.51259 -65,59.99999 l 25,-20 c 5,-24.99999 49.20406,-81.41286 70,-114.99999 z"
       id="path3786"
       inkscape:connector-curvature="0"
       sodipodi:nodetypes="ccccccccsscscccc" />
    <g
       id="g3796"
       transform="translate(-3.25,9.6071345)">
      <g
         transform="translate(0,-42)"
         id="g3787">
        <path
           sodipodi:nodetypes="ccccc"
           inkscape:connector-curvature="0"
           id="path3770"
           d="m 40,863.79075 -30,63.57143 70,0 -30,-63.57143 z"
           style="fill:#5f7c4d;fill-opacity:1;stroke:none" />
        <path
           sodipodi:nodetypes="cccc"
           inkscape:connector-curvature="0"
           id="path3766"
           d="m 20,892.36218 50,0 -25,-45 c -10,20 -15,25 -25,45 z"
           style="fill:#5f7c4d;fill-opacity:1;stroke:none" />
        <path
           style="fill:#4a603c;fill-opacity:1;stroke:none"
           d="m 50,140 15,0 15,35 -25,0 z"
           id="path3785"
           inkscape:connector-curvature="0"
           transform="translate(0,752.36218)" />
        <path
           sodipodi:nodetypes="ccccc"
           inkscape:connector-curvature="0"
           id="path3768"
           d="M 39.285714,893.07647 38,952.36218 l 14,0 -2.714286,-59.28571 z"
           style="fill:#602c05;fill-opacity:1;stroke:none" />
        <path
           style="fill:#4a603c;fill-opacity:1;stroke:none"
           d="M 45,95 70,140 55,140 45,95"
           id="path3783"
           inkscape:connector-curvature="0"
           transform="translate(0,752.36218)" />
      </g>
      <path
         sodipodi:nodetypes="ccccc"
         transform="translate(0,752.36218)"
         inkscape:connector-curvature="0"
         id="path3794"
         d="m 45,99 4,0 3,59 -7,0 z"
         style="fill:#421f03;fill-opacity:1;stroke:none" />
    </g>
    <path
       style="fill:#ae7b3e;fill-opacity:1;stroke:#000000;stroke-width:3;stroke-linecap:butt;stroke-linejoin:miter;stroke-miterlimit:4;stroke-opacity:1;stroke-dasharray:none"
       d="M 68.321429,929.82645 C 76.75,946.96931 31.75,961.96931 41.75,971.96931 c 30,29.99999 75,10 90,0 25,20 40,5 40,5 0,0 -19.42857,-13.57143 -20,-30 5,5 10,15 20,10 -30,-30 15,-35 -45,-145 l 0,65 c -13.603,-8.3236 -25.31814,-2.38176 -30,0 l 0,-45 c -22.789117,28.65646 -40.495452,73.31433 -28.428571,97.85714 z"
       id="path3784"
       inkscape:connector-curvature="0"
       sodipodi:nodetypes="scccccccccs" />
    <path
       style="fill:#8c6332;fill-opacity:1;stroke:#8c6332;stroke-width:4;stroke-miterlimit:4;stroke-opacity:1;stroke-dasharray:none"
       d="m 128.75,828.96931 c 43,58 23,113 33,123"
       id="path3837"
       inkscape:connector-curvature="0"
       sodipodi:nodetypes="cc" />
    <path
       style="fill:#e3cda6;fill-opacity:1;stroke:none"
       d="m 70.75,935.96931 c 0,-30.41381 16,-39 16,-39 l 10,25 c 0,0 10,-10 35,-30 10,15 20,45 20,45 -15,5 -20,15 -20,33 -7,6 -62,34.99999 -90,-1 0,-7 23,-18 29,-33 z"
       id="path3805"
       inkscape:connector-curvature="0"
       sodipodi:nodetypes="cccccccc" />
    <g
       id="g3811"
       transform="matrix(0.975441,0.22026087,-0.22026087,0.975441,204.3457,7.1451394)">
      <path
         style="fill:#ccb17e;fill-opacity:1;stroke:none"
         d="m 112,942.36218 c 0,0 3,-13 18,-18 -5,15 -18,18 -18,18 z"
         id="path3809"
         inkscape:connector-curvature="0"
         sodipodi:nodetypes="ccc" />
      <path
         sodipodi:nodetypes="ccc"
         transform="translate(0,752.36218)"
         inkscape:connector-curvature="0"
         id="path3807"
         d="m 110,190 c 0,0 5,-15 20,-20 -5,15 -20,20 -20,20 z"
         style="fill:#2c1e18;fill-opacity:1;stroke:none" />
    </g>
    <g
       transform="matrix(-0.52384326,0.24050378,0.11828719,1.0650882,31.717554,-79.959337)"
       id="g3815">
      <path
         sodipodi:nodetypes="ccc"
         inkscape:connector-curvature="0"
         id="path3817"
         d="m 112,942.36218 c 0,0 3,-13 18,-18 -5,15 -18,18 -18,18 z"
         style="fill:#ccb17e;fill-opacity:1;stroke:none" />
      <path
         style="fill:#2c1e18;fill-opacity:1;stroke:none"
         d="m 110,190 c 0,0 5,-15 20,-20 -5,15 -20,20 -20,20 z"
         id="path3819"
         inkscape:connector-curvature="0"
         transform="translate(0,752.36218)"
         sodipodi:nodetypes="ccc" />
    </g>
    <g
       id="g3821"
       transform="matrix(-0.16889463,0.55111563,0.87393783,0.62019144,-737.71254,324.92405)">
      <path
         style="fill:#ccb17e;fill-opacity:1;stroke:none"
         d="m 112.00167,941.24653 c 0,0 5.02937,-8.41578 15.43198,-15.3256 0.9138,10.47481 -15.43198,15.3256 -15.43198,15.3256 z"
         id="path3823"
         inkscape:connector-curvature="0"
         sodipodi:nodetypes="ccc" />
      <path
         sodipodi:nodetypes="ccc"
         transform="translate(0,752.36218)"
         inkscape:connector-curvature="0"
         id="path3825"
         d="m 109.45364,189.53617 c 0,0 6.53808,-9.03468 17.98001,-15.97742 -3.1246,10.83861 -17.98001,15.97742 -17.98001,15.97742 z"
         style="fill:#2c1e18;fill-opacity:1;stroke:none" />
    </g>
    <path
       style="fill:#ccb17e;fill-opacity:1;stroke:#000000;stroke-opacity:1"
       d="m 86.75,1006.9693 5,-9.99999 3,4.99999 7,-4.99999 0,5.99999 c -9,13 -24,17 -32,19 z"
       id="path3827"
       inkscape:connector-curvature="0"
       sodipodi:nodetypes="ccccccc" />
    <path
       sodipodi:nodetypes="cccccccc"
       inkscape:connector-curvature="0"
       id="path3829"
       d="m 111.75,1026.9693 10,-10 0,5 8,-4 2,4 5,0 c -9,13 -28.28571,15.1428 -36.28571,17.1428 z"
       style="fill:#ccb17e;fill-opacity:1;stroke:#000000;stroke-opacity:1" />
    <path
       style="fill:#b77a5e;fill-opacity:1;stroke:#000000;stroke-width:1;stroke-miterlimit:4;stroke-opacity:1;stroke-dasharray:none"
       d="m 131.75,831.96931 0,45 11,4 -1,-3 4,2 -2,-4 5,3 c -3.82824,-16.03435 -9.81083,-31.63784 -17,-47"
       id="path3831"
       inkscape:connector-curvature="0"
       sodipodi:nodetypes="cccccccc" />
    <path
       sodipodi:nodetypes="cccccccc"
       inkscape:connector-curvature="0"
       id="path3833"
       d="m 131.75,831.96931 0,45 11,4 -1,-3 4,2 -2,-4 5,3 c -3.82824,-16.03435 -9.81083,-31.63784 -17,-47"
       style="fill:#b77a5e;fill-opacity:1;stroke:#000000;stroke-width:1;stroke-miterlimit:4;stroke-opacity:1;stroke-dasharray:none" />
    <path
       style="fill:#b77a5e;fill-opacity:1;stroke:#000000;stroke-width:1;stroke-miterlimit:4;stroke-opacity:1;stroke-dasharray:none"
       d="m 91.75,846.96931 0,29 -11,4 1,-3 -4,2 2,-4 -5,3 c 8,-16 9.81083,-15.63783 17,-31"
       id="path3835"
       inkscape:connector-curvature="0"
       sodipodi:nodetypes="cccccccc" />
    <path
       style="fill:#8b470f;fill-opacity:1;stroke:#8b470f;stroke-width:2;stroke-miterlimit:4;stroke-opacity:1;stroke-dasharray:none"
       d="m 170.41389,895.33643 c 0,0 7.87007,-13.71357 17.67222,-11.73424"
       id="path3839"
       inkscape:connector-curvature="0" />
    <path
       inkscape:connector-curvature="0"
       id="path3841"
       d="m 197.19938,878.92701 c 0,0 11.06091,-11.2985 20.05219,-6.92166"
       style="fill:#8b470f;fill-opacity:1;stroke:#8b470f;stroke-width:2;stroke-miterlimit:4;stroke-opacity:1;stroke-dasharray:none" />
    <path
       style="fill:#8b470f;fill-opacity:1;stroke:#8b470f;stroke-width:2;stroke-miterlimit:4;stroke-opacity:1;stroke-dasharray:none"
       d="m 231.95504,868.3113 c 0,0 14.7715,-5.63939 21.10943,2.09563"
       id="path3843"
       inkscape:connector-curvature="0" />
    <path
       inkscape:connector-curvature="0"
       id="path3845"
       d="m 217.2231,882.93318 c 0,0 12.55667,-9.60885 20.8333,-3.99661"
       style="fill:#8b470f;fill-opacity:1;stroke:#8b470f;stroke-width:2;stroke-miterlimit:4;stroke-opacity:1;stroke-dasharray:none" />
    <path
       style="fill:#8b470f;fill-opacity:1;stroke:#8b470f;stroke-width:2;stroke-miterlimit:4;stroke-opacity:1;stroke-dasharray:none"
       d="m 187.46934,899.49737 c 0,0 8.49024,-13.33852 18.19137,-10.91207"
       id="path3847"
       inkscape:connector-curvature="0" />
    <path
       style="fill:#cdb280;fill-opacity:1;stroke:#000000;stroke-width:1;stroke-miterlimit:4;stroke-opacity:1;stroke-dasharray:none"
       d="m 346.75,911.96931 -15,10 10,0 -7,6 9,-1 -3,5 c 3,-1 6,0 9,-2 9.46753,4.89351 26.56289,12.69049 42,-3 -23.71237,0.39337 -35.24148,-6.75527 -45,-15 z"
       id="path3856"
       inkscape:connector-curvature="0"
       sodipodi:nodetypes="ccccccccc" />
    <path
       style="fill:#8b470f;fill-opacity:1;stroke:#8b470f;stroke-width:2;stroke-miterlimit:4;stroke-opacity:1;stroke-dasharray:none"
       d="m 303.19724,844.78323 c 0,0 -8.23795,-13.49579 -1.78805,-21.1377"
       id="path3858"
       inkscape:connector-curvature="0" />
    <path
       inkscape:connector-curvature="0"
       id="path3860"
       d="m 302.09362,817.55558 c 0,0 -3.84275,-15.33733 4.59111,-20.71042"
       style="fill:#8b470f;fill-opacity:1;stroke:#8b470f;stroke-width:2;stroke-miterlimit:4;stroke-opacity:1;stroke-dasharray:none" />
    <path
       style="fill:#8b470f;fill-opacity:1;stroke:#8b470f;stroke-width:2;stroke-miterlimit:4;stroke-opacity:1;stroke-dasharray:none"
       d="m 295.93472,832.72275 c 0,0 -6.21584,-14.53835 1.26401,-21.1755"
       id="path3862"
       inkscape:connector-curvature="0" />
    <path
       style="fill:#cdb280;fill-opacity:1;stroke:#000000;stroke-width:1;stroke-miterlimit:4;stroke-opacity:1;stroke-dasharray:none"
       d="m 311.75,786.96931 c 0,0 0,5 0,10 5,0 15,0 16,-9 -1,4 -1,9 7,19 7,-5 12,-5 17,-15 0,5 0,15 7,15 2.17992,-13.49001 2.44566,-26.97524 13,-40 -20.09526,6.46255 -42.88747,7.14589 -60,20"
       id="path3864"
       inkscape:connector-curvature="0"
       sodipodi:nodetypes="cccccccc" />
    <path
       style="fill:#8c6332;fill-opacity:1;stroke:none"
       d="m 171.75,976.96931 c -18,8 -30.75744,5.69367 -30,-20 7.4594,3.95766 11,7 10,0 6.05175,7.02371 9.24687,15.70612 20,20 z"
       id="path3866"
       inkscape:connector-curvature="0"
       sodipodi:nodetypes="cccc" />
    <path
       sodipodi:nodetypes="cccc"
       inkscape:connector-curvature="0"
       id="path3868"
       d="m 106.75,996.96931 c -5,4.99999 -5,4.99999 -5,-10 l 10,-5 c 10,0 -5,10 -5,15 z"
       style="fill:#8c6332;fill-opacity:1;stroke:none" />
    <path
       sodipodi:nodetypes="cc"
       inkscape:connector-curvature="0"
       id="path3870"
       d="m 93.544597,840.33398 c 0,20 0,33 0,38"
       style="fill:#8c6332;fill-opacity:1;stroke:#8c6332;stroke-width:3;stroke-miterlimit:4;stroke-opacity:1;stroke-dasharray:none" />
    <path
       style="fill:#cbaf7b;fill-opacity:1;stroke:none"
       d="m 96.75,981.96931 c 11.24359,-2.43591 23.09417,-10.94169 35,-20 l 0,10 c -30.03848,13.00757 -34.99115,12.80544 -35,10 z"
       id="path3872"
       inkscape:connector-curvature="0"
       sodipodi:nodetypes="cccc" />
  </g>
</svg>
