<?xml version="1.0" encoding="UTF-8" standalone="no"?>
<!-- Created with Inkscape (http://www.inkscape.org/) -->

<svg
   xmlns:dc="http://purl.org/dc/elements/1.1/"
   xmlns:cc="http://creativecommons.org/ns#"
   xmlns:rdf="http://www.w3.org/1999/02/22-rdf-syntax-ns#"
   xmlns:svg="http://www.w3.org/2000/svg"
   xmlns="http://www.w3.org/2000/svg"
   xmlns:sodipodi="http://sodipodi.sourceforge.net/DTD/sodipodi-0.dtd"
   xmlns:inkscape="http://www.inkscape.org/namespaces/inkscape"
   width="400"
   height="300"
   id="svg2"
   version="1.1"
   inkscape:version="0.48.4 r9939"
   sodipodi:docname="heart.svg"
   inkscape:export-filename="/home/elena/Documents/Office/Inkscape/My works/dribble/Heart/heart.png"
   inkscape:export-xdpi="90"
   inkscape:export-ydpi="90">
  <defs
     id="defs4" />
  <sodipodi:namedview
     id="base"
     pagecolor="#ffffff"
     bordercolor="#666666"
     borderopacity="1.0"
     inkscape:pageopacity="0.0"
     inkscape:pageshadow="2"
     inkscape:zoom="1.979899"
     inkscape:cx="95.047829"
     inkscape:cy="91.800867"
     inkscape:document-units="px"
     inkscape:current-layer="layer1"
     showgrid="true"
     inkscape:window-width="1299"
     inkscape:window-height="744"
     inkscape:window-x="67"
     inkscape:window-y="24"
     inkscape:window-maximized="1">
    <inkscape:grid
       type="xygrid"
       id="grid2985"
       empspacing="10"
       visible="true"
       enabled="true"
       snapvisiblegridlinesonly="true" />
  </sodipodi:namedview>
  <metadata
     id="metadata7">
    <rdf:RDF>
      <cc:Work
         rdf:about="">
        <dc:format>image/svg+xml</dc:format>
        <dc:type
           rdf:resource="http://purl.org/dc/dcmitype/StillImage" />
        <dc:title />
      </cc:Work>
    </rdf:RDF>
  </metadata>
  <g
     inkscape:label="Layer 1"
     inkscape:groupmode="layer"
     id="layer1"
     transform="translate(0,-752.36218)">
    <g
       id="g3886"
       transform="translate(0,-4)" />
    <g
       id="g3767"
       transform="translate(58.035715,-65)" />
    <path
       inkscape:connector-curvature="0"
       id="path3792"
       d="m 204.32143,924.86218 c 0,16.56854 -13.43146,30 -30,30 -16.56854,0 -30,-13.43146 -30,-30 0,-16.56854 13.43146,-30 30,-30 16.56854,0 30,13.43146 30,30 z"
       style="fill:#d70f52;fill-opacity:1;stroke:none" />
    <path
       inkscape:connector-curvature="0"
       id="path3794"
       d="m 259.96429,924.86218 c 0,16.56854 -13.43146,30 -30,30 -16.56854,0 -30,-13.43146 -30,-30 0,-16.56854 13.43146,-30 30,-30 16.56854,0 30,13.43146 30,30 z"
       style="fill:#d70f52;fill-opacity:1;stroke:none" />
    <path
       inkscape:connector-curvature="0"
       id="path3763"
       d="m 200.17857,863.86218 c 0,22.09139 -17.90861,40 -40,40 -22.09139,0 -40,-17.90861 -40,-40 0,-22.09139 17.90861,-40 40,-40 22.09139,0 40,17.90861 40,40 z"
       style="fill:#d70f52;fill-opacity:1;stroke:none" />
    <path
       inkscape:connector-curvature="0"
       id="path3765"
       d="m 279.82143,863.86218 c 0,22.09139 -17.90861,40 -40,40 -22.09139,0 -40,-17.90861 -40,-40 0,-22.09139 17.90861,-40 40,-40 22.09139,0 40,17.90861 40,40 z"
       style="fill:#d70f52;fill-opacity:1;stroke:none" />
    <path
       inkscape:connector-curvature="0"
       id="path3800"
       d="m 218.92857,961.36218 c 0,21 -34.60432,5.03171 -17.85714,19.5 -11.04569,0 -20,-8.95431 -20,-20 0,-11.04569 8.95431,-20 20,-20 11.04569,0 17.85714,6.5 17.85714,20.5 z"
       style="fill:#d70f52;fill-opacity:1;stroke:none"
       sodipodi:nodetypes="ccssc" />
    <path
       style="fill:#d70f52;fill-opacity:1;stroke:none"
       d="m 162.14286,858.86218 80,0 0,90 -80,0 z"
       id="path3816"
       inkscape:connector-curvature="0" />
  </g>
</svg>
