<?xml version="1.0" encoding="UTF-8" standalone="no"?>
<!-- Created with Inkscape (http://www.inkscape.org/) -->

<svg
   xmlns:dc="http://purl.org/dc/elements/1.1/"
   xmlns:cc="http://creativecommons.org/ns#"
   xmlns:rdf="http://www.w3.org/1999/02/22-rdf-syntax-ns#"
   xmlns:svg="http://www.w3.org/2000/svg"
   xmlns="http://www.w3.org/2000/svg"
   xmlns:sodipodi="http://sodipodi.sourceforge.net/DTD/sodipodi-0.dtd"
   xmlns:inkscape="http://www.inkscape.org/namespaces/inkscape"
   width="400"
   height="300"
   id="svg2"
   version="1.1"
   inkscape:version="0.48.4 r9939"
   sodipodi:docname="my_blazon.svg"
   inkscape:export-filename="/home/elena/Documents/Office/Inkscape/My works/dribble/Blazon/my_png_blazon.png"
   inkscape:export-xdpi="90"
   inkscape:export-ydpi="90">
  <defs
     id="defs4" />
  <sodipodi:namedview
     id="base"
     pagecolor="#780001"
     bordercolor="#666666"
     borderopacity="1.0"
     inkscape:pageopacity="1"
     inkscape:pageshadow="2"
     inkscape:zoom="0.98994949"
     inkscape:cx="107.55179"
     inkscape:cy="119.71982"
     inkscape:document-units="px"
     inkscape:current-layer="layer1"
     showgrid="true"
     inkscape:window-width="1299"
     inkscape:window-height="744"
     inkscape:window-x="67"
     inkscape:window-y="24"
     inkscape:window-maximized="1"
     showguides="true"
     inkscape:guide-bbox="true">
    <inkscape:grid
       type="xygrid"
       id="grid2985"
       empspacing="9"
       visible="true"
       enabled="true"
       snapvisiblegridlinesonly="true" />
  </sodipodi:namedview>
  <metadata
     id="metadata7">
    <rdf:RDF>
      <cc:Work
         rdf:about="">
        <dc:format>image/svg+xml</dc:format>
        <dc:type
           rdf:resource="http://purl.org/dc/dcmitype/StillImage" />
        <dc:title></dc:title>
      </cc:Work>
    </rdf:RDF>
  </metadata>
  <g
     inkscape:label="Layer 1"
     inkscape:groupmode="layer"
     id="layer1"
     transform="translate(0,-752.36218)">
    <path
       sodipodi:nodetypes="cccc"
       inkscape:connector-curvature="0"
       id="path2984"
       d="m 128,820.86218 144,0 c 0,153 -7.92377,122.44846 -72,167 -61.86787,-45.29732 -72,-14 -72,-167 z"
       style="fill:#d92f18;fill-opacity:1;stroke:#d92f18;stroke-width:2;stroke-miterlimit:4;stroke-opacity:1;stroke-dasharray:none" />
    <path
       style="fill:#ffffff;fill-opacity:1;stroke:#ffffff;stroke-width:2;stroke-miterlimit:4;stroke-opacity:1;stroke-dasharray:none"
       d="m 138.64286,832.36218 121,0 c 0,17 -0.2666,28.00296 0,40 -3,45 -1,62 -22,78 -8,6 -30.91316,20.09372 -38,25 -12.90858,-8.73812 -26,-19 -34,-25 4,-12 4,-15 6,-21 43,37 46,15 23,-2 -23,-17 -48,-45 -56,-54 0,-15 0,-19 0,-41 z"
       id="path2987"
       inkscape:connector-curvature="0"
       sodipodi:nodetypes="ccccccczcc" />
    <path
       style="fill:#d92f18;fill-opacity:1;stroke:#d92f18;stroke-width:2;stroke-miterlimit:4;stroke-opacity:1;stroke-dasharray:none"
       d="m 198,931.36218 c -18,0 -18,26 0,26 18,0 18,-26 0,-26 z"
       id="path3756"
       inkscape:connector-curvature="0"
       sodipodi:nodetypes="ccc" />
    <path
       style="fill:#ffffff;fill-opacity:1;stroke:#d92f18;stroke-width:2;stroke-miterlimit:4;stroke-opacity:1;stroke-dasharray:none"
       d="m 195,937.36218 6,0 0,4 4,0 0,6 -4,0 0,4 -6,0 0,-4 -4,0 0,-6 4,0 z"
       id="path3760"
       inkscape:connector-curvature="0"
       sodipodi:nodetypes="ccccccccccccc" />
    <path
       style="fill:#d92f18;fill-opacity:1;stroke:#d92f18;stroke-width:2;stroke-miterlimit:4;stroke-opacity:1;stroke-dasharray:none"
       d="m 205,100 0,9 -7,10 0,-22 -27.28422,0 c 0,0 -9.87726,1.354919 -13.71578,3 -7,3 -12,10 -12,10 l 26,26 28,0 10,-21 0,-12 z"
       id="path3766"
       inkscape:connector-curvature="0"
       transform="translate(0,752.36218)"
       sodipodi:nodetypes="cccccscccccc" />
    <g
       id="g3774">
      <path
         style="fill:#d92f18;fill-opacity:1;stroke:#d92f18;stroke-width:2;stroke-miterlimit:4;stroke-opacity:1;stroke-dasharray:none"
         d="m 198,931.36218 c -18,0 -18,26 0,26 18,0 18,-26 0,-26 z"
         id="path3770"
         inkscape:connector-curvature="0"
         sodipodi:nodetypes="ccc" />
      <path
         style="fill:#ffffff;fill-opacity:1;stroke:#d92f18;stroke-width:2;stroke-miterlimit:4;stroke-opacity:1;stroke-dasharray:none"
         d="m 195,937.36218 6,0 0,4 4,0 0,6 -4,0 0,4 -6,0 0,-4 -4,0 0,-6 4,0 z"
         id="path3772"
         inkscape:connector-curvature="0"
         sodipodi:nodetypes="ccccccccccccc" />
    </g>
    <path
       style="fill:#d92f18;fill-opacity:1;stroke:#d92f18;stroke-width:2;stroke-miterlimit:4;stroke-opacity:1;stroke-dasharray:none"
       d="m 229.71428,872.21932 9,0 C 239.81561,901.22625 237,906.36218 233,909.36218 c -8,5 -11,3 -14,3 -8,2 -16,5 -16,-10 2.86278,3.52623 34.45043,20.19283 32.71428,-25.14286 -2.52072,-1.52072 -5.71428,0.14286 -6,-5 z"
       id="path3778"
       inkscape:connector-curvature="0"
       sodipodi:nodetypes="ccccccc" />
    <path
       style="fill:#d92f18;fill-opacity:1;stroke:#d92f18;stroke-width:2.04476786;stroke-miterlimit:4;stroke-opacity:1;stroke-dasharray:none"
       d="m 212.73917,881.3111 c -2.97015,0 -2.97015,4.22309 0,4.22309 2.97015,0 2.97015,-4.22309 0,-4.22309 z"
       id="path3780"
       inkscape:connector-curvature="0"
       sodipodi:nodetypes="csc" />
    <path
       sodipodi:nodetypes="csc"
       inkscape:connector-curvature="0"
       id="path3782"
       d="m 221.63634,881.53295 c -3,0 -3,4 0,4 3,0 3,-4 0,-4 z"
       style="fill:#d92f18;fill-opacity:1;stroke:#d92f18;stroke-width:2;stroke-miterlimit:4;stroke-opacity:1;stroke-dasharray:none" />
    <path
       style="fill:#d92f18;fill-opacity:1;stroke:#d92f18;stroke-width:2;stroke-miterlimit:4;stroke-opacity:1;stroke-dasharray:none"
       d="m 217.45589,889.90016 c -3,0 -3,4 0,4 3,0 3,-4 0,-4 z"
       id="path3784"
       inkscape:connector-curvature="0"
       sodipodi:nodetypes="csc" />
  </g>
</svg>
