<?xml version="1.0" encoding="UTF-8" standalone="no"?>
<!-- Created with Inkscape (http://www.inkscape.org/) -->

<svg
   xmlns:dc="http://purl.org/dc/elements/1.1/"
   xmlns:cc="http://creativecommons.org/ns#"
   xmlns:rdf="http://www.w3.org/1999/02/22-rdf-syntax-ns#"
   xmlns:svg="http://www.w3.org/2000/svg"
   xmlns="http://www.w3.org/2000/svg"
   xmlns:sodipodi="http://sodipodi.sourceforge.net/DTD/sodipodi-0.dtd"
   xmlns:inkscape="http://www.inkscape.org/namespaces/inkscape"
   width="400"
   height="300"
   id="svg2"
   version="1.1"
   inkscape:version="0.48.4 r9939"
   sodipodi:docname="my_b.svg"
   inkscape:export-filename="/home/elena/Documents/Office/Inkscape/My works/dribble/B/my_b_with_letters.png"
   inkscape:export-xdpi="90"
   inkscape:export-ydpi="90">
  <defs
     id="defs4" />
  <sodipodi:namedview
     id="base"
     pagecolor="#ffcc66"
     bordercolor="#666666"
     borderopacity="1.0"
     inkscape:pageopacity="1"
     inkscape:pageshadow="2"
     inkscape:zoom="5.6"
     inkscape:cx="189.26325"
     inkscape:cy="27.33115"
     inkscape:document-units="px"
     inkscape:current-layer="layer1"
     showgrid="true"
     inkscape:window-width="1299"
     inkscape:window-height="744"
     inkscape:window-x="67"
     inkscape:window-y="24"
     inkscape:window-maximized="1">
    <inkscape:grid
       type="xygrid"
       id="grid2985"
       empspacing="10"
       visible="true"
       enabled="true"
       snapvisiblegridlinesonly="true" />
  </sodipodi:namedview>
  <metadata
     id="metadata7">
    <rdf:RDF>
      <cc:Work
         rdf:about="">
        <dc:format>image/svg+xml</dc:format>
        <dc:type
           rdf:resource="http://purl.org/dc/dcmitype/StillImage" />
        <dc:title></dc:title>
      </cc:Work>
    </rdf:RDF>
  </metadata>
  <g
     inkscape:label="Layer 1"
     inkscape:groupmode="layer"
     id="layer1"
     transform="translate(0,-752.36218)">
    <g
       id="g3779"
       transform="translate(-1.095469,-17.904768)">
      <g
         transform="translate(9.9667122,0.40984289)"
         id="g3824">
        <path
           style="fill:#66c8c9;fill-opacity:1;stroke:#000000;stroke-width:4;stroke-miterlimit:4;stroke-opacity:1;stroke-dasharray:none"
           d="m 86,100 0,102.0152 C 87.464171,239.8793 90,260 130,260 c 76.66667,0 43.33333,0 120,0 41.92477,-17.6692 41.12876,-30.50508 46,-60 0,0 5.12876,-30.50508 -44.87124,-50.50508 47.82741,-19.46859 42,-55.999995 43,-49.999995 -1.1794,-20.614618 -13,-50 -45.63123,-59.494925 L 130,40 C 90.77044,43.745002 84.865518,61.272835 86,100 z"
           id="path2987"
           inkscape:connector-curvature="0"
           sodipodi:nodetypes="cccccccccc"
           transform="translate(0,752.36218)" />
        <path
           sodipodi:nodetypes="ccccc"
           inkscape:connector-curvature="0"
           id="path3776"
           d="M 85.494923,852.86725 C 155.49492,852.86725 204,852.36218 294,852.36218 c 5.34304,-24.0266 -12.86261,-60.5068 -47.0177,-60.50508 l -107.07617,0 c -42.894165,0.0804 -57.073348,20.75533 -54.411207,61.01015 z"
           style="fill:#f14e2b;fill-opacity:1;stroke:#000000;stroke-width:4;stroke-miterlimit:4;stroke-opacity:1;stroke-dasharray:none" />
        <path
           style="fill:#f14e2b;fill-opacity:1;stroke:#000000;stroke-width:4;stroke-miterlimit:4;stroke-opacity:1;stroke-dasharray:none"
           d="M 86,80 292.12876,79.494925"
           id="path3778"
           inkscape:connector-curvature="0"
           transform="translate(0,752.36218)"
           sodipodi:nodetypes="cc" />
        <path
           style="fill:#f14e2b;fill-opacity:1;stroke:#000000;stroke-width:4;stroke-miterlimit:4;stroke-opacity:1;stroke-dasharray:none"
           d="m 180,80 0,20"
           id="path3780"
           inkscape:connector-curvature="0"
           transform="translate(0,752.36218)"
           sodipodi:nodetypes="cc" />
        <path
           style="fill:#f14e2b;fill-opacity:1;stroke:#000000;stroke-width:4;stroke-miterlimit:4;stroke-opacity:1;stroke-dasharray:none"
           d="m 100,80 0,20"
           id="path3782"
           inkscape:connector-curvature="0"
           transform="translate(0,752.36218)" />
        <path
           style="fill:#f14e2b;fill-opacity:1;stroke:#000000;stroke-width:4;stroke-miterlimit:4;stroke-opacity:1;stroke-dasharray:none"
           d="m 120,80 0,20"
           id="path3784"
           inkscape:connector-curvature="0"
           transform="translate(0,752.36218)" />
        <path
           style="fill:#f14e2b;fill-opacity:1;stroke:#000000;stroke-width:4;stroke-miterlimit:4;stroke-opacity:1;stroke-dasharray:none"
           d="m 140,80 0,20"
           id="path3786"
           inkscape:connector-curvature="0"
           transform="translate(0,752.36218)" />
        <path
           style="fill:#f14e2b;fill-opacity:1;stroke:#000000;stroke-width:4;stroke-miterlimit:4;stroke-opacity:1;stroke-dasharray:none"
           d="m 160,100 0,-20"
           id="path3788"
           inkscape:connector-curvature="0"
           transform="translate(0,752.36218)" />
        <path
           style="fill:#f14e2b;fill-opacity:1;stroke:#000000;stroke-width:4;stroke-miterlimit:4;stroke-opacity:1;stroke-dasharray:none"
           d="m 200,100 0,-20"
           id="path3790"
           inkscape:connector-curvature="0"
           transform="translate(0,752.36218)" />
        <path
           style="fill:#f14e2b;fill-opacity:1;stroke:#000000;stroke-width:4;stroke-miterlimit:4;stroke-opacity:1;stroke-dasharray:none"
           d="m 220,80 0,20"
           id="path3792"
           inkscape:connector-curvature="0"
           transform="translate(0,752.36218)" />
        <path
           style="fill:#f14e2b;fill-opacity:1;stroke:#000000;stroke-width:4;stroke-miterlimit:4;stroke-opacity:1;stroke-dasharray:none"
           d="m 240,80 0,20"
           id="path3794"
           inkscape:connector-curvature="0"
           transform="translate(0,752.36218)" />
        <path
           style="fill:#f14e2b;fill-opacity:1;stroke:#000000;stroke-width:4;stroke-miterlimit:4;stroke-opacity:1;stroke-dasharray:none"
           d="m 260,80 0,20"
           id="path3796"
           inkscape:connector-curvature="0"
           transform="translate(0,752.36218)" />
        <path
           style="fill:#f14e2b;fill-opacity:1;stroke:#000000;stroke-width:4;stroke-miterlimit:4;stroke-opacity:1;stroke-dasharray:none"
           d="m 280,80 0,20"
           id="path3798"
           inkscape:connector-curvature="0"
           transform="translate(0,752.36218)" />
        <path
           style="fill:#f14e2b;fill-opacity:1;stroke:#000000;stroke-width:4;stroke-miterlimit:4;stroke-opacity:1;stroke-dasharray:none"
           d="m 190,40 0,40"
           id="path3800"
           inkscape:connector-curvature="0"
           transform="translate(0,752.36218)" />
        <path
           style="fill:#f14e2b;fill-opacity:1;stroke:#000000;stroke-width:4;stroke-miterlimit:4;stroke-opacity:1;stroke-dasharray:none"
           d="m 130.40355,791.35203 c 0,0 -30.40355,21.01015 -30.40355,41.01015"
           id="path3802"
           inkscape:connector-curvature="0"
           sodipodi:nodetypes="cc" />
        <path
           inkscape:connector-curvature="0"
           id="path3804"
           d="m 160.70813,792.36218 c 0,0 -20.70813,20 -20.70813,40"
           style="fill:#f14e2b;fill-opacity:1;stroke:#000000;stroke-width:4;stroke-miterlimit:4;stroke-opacity:1;stroke-dasharray:none"
           sodipodi:nodetypes="cc" />
        <path
           style="fill:#f14e2b;fill-opacity:1;stroke:#000000;stroke-width:4;stroke-miterlimit:4;stroke-opacity:1;stroke-dasharray:none"
           d="m 218.99496,792.86726 c 0,0 21.00504,19.49492 21.00504,39.49492"
           id="path3806"
           inkscape:connector-curvature="0"
           sodipodi:nodetypes="cc" />
        <path
           inkscape:connector-curvature="0"
           id="path3808"
           d="m 249.80461,793.37234 c 0,0 30.19539,18.98984 30.19539,38.98984"
           style="fill:#f14e2b;fill-opacity:1;stroke:#000000;stroke-width:4;stroke-miterlimit:4;stroke-opacity:1;stroke-dasharray:none"
           sodipodi:nodetypes="cc" />
        <path
           style="fill:#fdcc66;fill-opacity:1;stroke:#000000;stroke-width:4;stroke-miterlimit:4;stroke-opacity:1;stroke-dasharray:none"
           d="m 201.21065,882.91674 c 14,0 14,-20 0,-20 -14,0 -14,20 0,20 z"
           id="path3810"
           inkscape:connector-curvature="0"
           sodipodi:nodetypes="ccc" />
        <path
           style="fill:#e7e7e7;fill-opacity:1;stroke:#000000;stroke-width:4;stroke-miterlimit:4;stroke-opacity:1;stroke-dasharray:none"
           d="m 140.50508,1011.7556 115.52821,0.1968 c 24.41691,-9.3692 48.09547,-39.09529 38,-74.00006 C 281.12876,911.85711 260,918.36218 250,938.36218 c -5.88669,-29.89966 -73.86532,-46.8431 -100,0 -26.52749,-35.93422 -42.81592,-24.17908 -64,0 l 0,34 c 0,40.00002 31.17175,39.39342 54.50508,39.39342 z"
           id="path3816"
           inkscape:connector-curvature="0"
           sodipodi:nodetypes="cccccccc" />
        <path
           sodipodi:nodetypes="ccc"
           inkscape:connector-curvature="0"
           id="path3812"
           d="m 200.61892,941.3812 c 14,0 14,-20 0,-20 -14,0 -14,20 0,20 z"
           style="fill:#fdcc66;fill-opacity:1;stroke:#000000;stroke-width:4;stroke-miterlimit:4;stroke-opacity:1;stroke-dasharray:none" />
        <path
           sodipodi:nodetypes="ccc"
           inkscape:connector-curvature="0"
           id="path3818"
           d="m 140,892.36218 c 20,0 20,-30 1.21065,-29.44544 C 120,862.36218 120,892.36218 140,892.36218 z"
           style="fill:#000000;fill-opacity:1;stroke:#000000;stroke-width:2;stroke-miterlimit:4;stroke-opacity:1;stroke-dasharray:none" />
        <path
           sodipodi:nodetypes="ccc"
           inkscape:connector-curvature="0"
           id="path3820"
           d="m 134.5,877.46932 c 8,0 8,-11 0,-11 -7,0 -7,11 0,11 z"
           style="fill:#ffffff;fill-opacity:1;stroke:none" />
        <path
           style="fill:#ffffff;fill-opacity:1;stroke:none"
           d="m 128.67857,881.96932 c 4,0 4,-6 0.0357,-6.35714 -4.0357,0.35714 -4.0357,6.35714 -0.0357,6.35714 z"
           id="path3822"
           inkscape:connector-curvature="0"
           sodipodi:nodetypes="ccc" />
      </g>
    </g>
    <g
       id="g3815"
       transform="translate(14.674243,-11.714286)">
      <path
         sodipodi:nodetypes="ccscsc"
         transform="translate(0,752.36218)"
         inkscape:connector-curvature="0"
         id="path3009"
         d="m 140,270 0,20 c 0,0 10,1 10,-5 0,-3 -6,-5 -6,-5 0,0 6,-3 6,-7 0,-4 -10,-3 -10,-3 z"
         style="fill:none;stroke:#f04623;stroke-width:3;stroke-miterlimit:4;stroke-opacity:1;stroke-dasharray:none" />
      <g
         transform="translate(1.4285714,-0.08928571)"
         id="g3789">
        <path
           style="fill:none;stroke:#000000;stroke-width:3;stroke-miterlimit:4;stroke-opacity:1;stroke-dasharray:none"
           d="m 170,270 -10,0 0,20 10,0"
           id="path3785"
           inkscape:connector-curvature="0"
           transform="translate(0,752.36218)" />
        <path
           style="fill:none;stroke:#000000;stroke-width:3;stroke-miterlimit:4;stroke-opacity:1;stroke-dasharray:none"
           d="m 160,280 10,0"
           id="path3787"
           inkscape:connector-curvature="0"
           transform="translate(0,752.36218)" />
      </g>
      <g
         transform="translate(-18.75,0.17857143)"
         id="g3807">
        <path
           style="fill:none;stroke:#000000;stroke-width:3;stroke-miterlimit:4;stroke-opacity:1;stroke-dasharray:none"
           d="m 200.57143,1032.5765 6,0"
           id="path3795"
           inkscape:connector-curvature="0" />
        <path
           style="fill:none;stroke:#000000;stroke-width:3;stroke-miterlimit:4;stroke-opacity:1;stroke-dasharray:none"
           d="m 199.07576,291.53571 c 0,-2 2.67424,-21.71428 2.67424,-21.71428 l 4,0 3.32576,21.71428"
           id="path3801"
           inkscape:connector-curvature="0"
           sodipodi:nodetypes="cccc"
           transform="translate(0,752.36218)" />
      </g>
      <path
         sodipodi:nodetypes="ccscc"
         transform="translate(0,752.36218)"
         inkscape:connector-curvature="0"
         id="path3811"
         d="M 200.32576,291.71429 200,270 c 0,0 10,-1 10,5 0,5 -10,5 -10,5 8,0 10.32576,1.71429 10.32576,11.71429"
         style="fill:none;stroke:#000000;stroke-width:3;stroke-miterlimit:4;stroke-opacity:1;stroke-dasharray:none" />
      <path
         transform="translate(0,752.36218)"
         inkscape:connector-curvature="0"
         id="path3813"
         d="m 220,270 0,20 c 0,0 10,0 10,-10 0,-10 -10,-10 -10,-10 z"
         style="fill:none;stroke:#000000;stroke-width:3;stroke-miterlimit:4;stroke-opacity:1;stroke-dasharray:none" />
    </g>
  </g>
</svg>
