<?xml version="1.0" encoding="UTF-8" standalone="no"?>
<!-- Created with Inkscape (http://www.inkscape.org/) -->

<svg
   xmlns:dc="http://purl.org/dc/elements/1.1/"
   xmlns:cc="http://creativecommons.org/ns#"
   xmlns:rdf="http://www.w3.org/1999/02/22-rdf-syntax-ns#"
   xmlns:svg="http://www.w3.org/2000/svg"
   xmlns="http://www.w3.org/2000/svg"
   xmlns:sodipodi="http://sodipodi.sourceforge.net/DTD/sodipodi-0.dtd"
   xmlns:inkscape="http://www.inkscape.org/namespaces/inkscape"
   width="400"
   height="300"
   id="svg2"
   version="1.1"
   inkscape:version="0.48.4 r9939"
   sodipodi:docname="my_cat.svg"
   inkscape:export-filename="/home/elena/Documents/Office/Inkscape/My works/dribble/Cat/my_cat.png"
   inkscape:export-xdpi="90"
   inkscape:export-ydpi="90">
  <defs
     id="defs4">
    <inkscape:path-effect
       effect="spiro"
       id="path-effect3802"
       is_visible="true" />
  </defs>
  <sodipodi:namedview
     id="base"
     pagecolor="#98d1d4"
     bordercolor="#666666"
     borderopacity="1.0"
     inkscape:pageopacity="1"
     inkscape:pageshadow="2"
     inkscape:zoom="2"
     inkscape:cx="225.69101"
     inkscape:cy="174.85694"
     inkscape:document-units="px"
     inkscape:current-layer="layer1"
     showgrid="true"
     inkscape:window-width="1299"
     inkscape:window-height="744"
     inkscape:window-x="67"
     inkscape:window-y="24"
     inkscape:window-maximized="1"
     showguides="false">
    <inkscape:grid
       type="xygrid"
       id="grid2985"
       empspacing="10"
       visible="true"
       enabled="true"
       snapvisiblegridlinesonly="true" />
  </sodipodi:namedview>
  <metadata
     id="metadata7">
    <rdf:RDF>
      <cc:Work
         rdf:about="">
        <dc:format>image/svg+xml</dc:format>
        <dc:type
           rdf:resource="http://purl.org/dc/dcmitype/StillImage" />
        <dc:title />
      </cc:Work>
    </rdf:RDF>
  </metadata>
  <g
     inkscape:label="Layer 1"
     inkscape:groupmode="layer"
     id="layer1"
     transform="translate(0,-752.36218)">
    <path
       style="fill:#00000f;fill-opacity:0.94117647;stroke:none"
       d="m 204.56921,825.92468 c -1.74997,18.08261 8,26 27,15 -4.95558,14.78469 -3.84042,26.29319 -29.56921,41.4375 -20,-10 -20,-40 2.56921,-56.4375 z"
       id="path2987"
       inkscape:connector-curvature="0"
       sodipodi:nodetypes="cccc" />
    <g
       id="g3765"
       transform="translate(-2,6)">
      <path
         sodipodi:nodetypes="csc"
         inkscape:connector-curvature="0"
         id="path3778"
         d="m 196.01585,847.71258 c 0,0 11.6124,3.98181 8.7663,7.37824 -4.22141,5.03767 -8.7663,-7.37824 -8.7663,-7.37824 z"
         style="fill:#98d1d4;fill-opacity:1;stroke:none" />
      <path
         style="fill:#98d1d4;fill-opacity:1;stroke:none"
         d="m 222.73696,857.09843 c 0,0 -11.78522,-3.22461 -11.10121,1.15354 1.01452,6.49378 11.10121,-1.15354 11.10121,-1.15354 z"
         id="path3780"
         inkscape:connector-curvature="0"
         sodipodi:nodetypes="csc" />
    </g>
    <path
       style="fill:#00000f;fill-opacity:0.94117647;stroke:none"
       d="m 188.56921,840.92468 c -38,41 2,71 -8,91 -20,20 -1.15302,40.04266 26.25896,36.6093 3.5706,-0.44722 -56.25896,13.3907 -36.25896,-36.6093 -40,50 39,60 60,30 8,-10 10,-18.85522 10,-32 -10,-58 -56,-28 -57,-68"
       id="path3757"
       inkscape:connector-curvature="0"
       sodipodi:nodetypes="ccccccc" />
    <path
       style="fill:#ffffff;fill-opacity:1;stroke:none"
       d="m 80,60 0,0"
       id="path3800"
       inkscape:path-effect="#path-effect3802"
       inkscape:original-d="m 80,60 c 3.474577,2.352654 3.474577,2.352654 0,0"
       inkscape:connector-curvature="0"
       transform="translate(0,752.36218)" />
  </g>
</svg>
