<?xml version="1.0" encoding="UTF-8" standalone="no"?>
<!-- Created with Inkscape (http://www.inkscape.org/) -->

<svg
   xmlns:dc="http://purl.org/dc/elements/1.1/"
   xmlns:cc="http://creativecommons.org/ns#"
   xmlns:rdf="http://www.w3.org/1999/02/22-rdf-syntax-ns#"
   xmlns:svg="http://www.w3.org/2000/svg"
   xmlns="http://www.w3.org/2000/svg"
   xmlns:sodipodi="http://sodipodi.sourceforge.net/DTD/sodipodi-0.dtd"
   xmlns:inkscape="http://www.inkscape.org/namespaces/inkscape"
   width="400"
   height="300"
   id="svg2"
   version="1.1"
   inkscape:version="0.48.4 r9939"
   sodipodi:docname="my_dog_new.svg"
   inkscape:export-filename="/home/elena/Documents/Inkscape_v/dribbble_v/Dog_new_v/my_dog_new.png"
   inkscape:export-xdpi="90"
   inkscape:export-ydpi="90">
  <defs
     id="defs4" />
  <sodipodi:namedview
     id="base"
     pagecolor="#ffffff"
     bordercolor="#666666"
     borderopacity="1.0"
     inkscape:pageopacity="1"
     inkscape:pageshadow="2"
     inkscape:zoom="3.24"
     inkscape:cx="259.25846"
     inkscape:cy="120.98369"
     inkscape:document-units="px"
     inkscape:current-layer="layer1"
     showgrid="true"
     inkscape:window-width="1366"
     inkscape:window-height="718"
     inkscape:window-x="0"
     inkscape:window-y="0"
     inkscape:window-maximized="1"
     showguides="true"
     inkscape:guide-bbox="true">
    <inkscape:grid
       type="xygrid"
       id="grid2985"
       empspacing="10"
       visible="true"
       enabled="true"
       snapvisiblegridlinesonly="true" />
  </sodipodi:namedview>
  <metadata
     id="metadata7">
    <rdf:RDF>
      <cc:Work
         rdf:about="">
        <dc:format>image/svg+xml</dc:format>
        <dc:type
           rdf:resource="http://purl.org/dc/dcmitype/StillImage" />
        <dc:title></dc:title>
      </cc:Work>
    </rdf:RDF>
  </metadata>
  <g
     inkscape:label="Layer 1"
     inkscape:groupmode="layer"
     id="layer1"
     transform="translate(0,-752.36218)">
    <path
       style="fill:#d4cbba;fill-opacity:1;fill-rule:evenodd;stroke:none"
       d="m 176,953.36218 c -2.95286,1.54652 -11,8 -6,13 2.43621,2.43621 14,1 18,-2 11.82855,6.10001 13.07497,2.70626 18,-2 7,0 -3,0 3,0 2,4 9.81674,2.95876 12,0 5,7 16,8 19,4 2.15432,-6.55556 -3.64298,-10.64298 -6,-13 -16.49916,-16.49916 -37.84568,-10.55556 -58,0 z"
       id="path4264"
       inkscape:connector-curvature="0"
       sodipodi:nodetypes="sccccccss" />
    <path
       style="fill:#94d9f8;fill-opacity:1;fill-rule:evenodd;stroke:none"
       d="m 150,852.36218 110,10 c 0,0 10,0 10,10 0,4.71405 0,10 0,10 0.5742,0.34452 15.42236,-6.74658 10,20 -1.98689,9.80063 -18.24521,11.05747 -18.24521,11.05747 0,0 17.90776,12.17798 18.24521,18.94253 0,0 0,20 -15,20 0,0 -85,0 -125,0 -10,-10 10,-10 10,-10 0,0 -10,-5.37621 -10,-10 0,-10 10,-20 10,-20 0,0 0,0 -20,0 -10,-10 20,-30 20,-30 0,0 -20,-1.31253 -20,-10 0,-20 20,-20 20,-20 z"
       id="path2987"
       inkscape:connector-curvature="0"
       sodipodi:nodetypes="ccscscccccscccsc" />
    <path
       style="fill:#471403;fill-opacity:1;fill-rule:evenodd;stroke:none"
       d="m 200,70 c -133.333333,153.33333 -66.66667,76.66667 0,0 z"
       id="path3754"
       inkscape:connector-curvature="0"
       transform="translate(0,752.36218)"
       sodipodi:nodetypes="cc" />
    <path
       style="fill:#fdbc6a;fill-opacity:1;fill-rule:evenodd;stroke:none"
       d="m 219.17309,850.7908 c 13.76218,-5.42862 31.76218,4.57138 30.76218,20.57138 -3.00001,9 -13.7448,10.53076 -17.27965,1.78406 -3.98018,-17.26135 -2.71416,-9.87232 -13.48253,-22.35544 z"
       id="path3983"
       inkscape:connector-curvature="0"
       sodipodi:nodetypes="cccc" />
    <path
       sodipodi:nodetypes="cccc"
       inkscape:connector-curvature="0"
       id="path3997"
       d="m 232.65562,873.14624 c 0,0 -0.52335,-14.30825 -9.85048,-18.99916 1.44867,3.30172 5.50447,9.094 5.50447,9.094 z"
       style="fill:#f59c42;fill-opacity:1;fill-rule:evenodd;stroke:none" />
    <path
       sodipodi:nodetypes="cccc"
       inkscape:connector-curvature="0"
       id="path4007"
       d="m 189.97518,850.7908 c -13.76218,-5.42862 -31.76218,4.57138 -30.76218,20.57138 3.00001,9 13.7448,10.53076 17.27965,1.78406 3.98018,-17.26135 2.71416,-9.87232 13.48253,-22.35544 z"
       style="fill:#fdbc6a;fill-opacity:1;fill-rule:evenodd;stroke:none" />
    <path
       style="fill:#f59c42;fill-opacity:1;fill-rule:evenodd;stroke:none"
       d="m 176.49265,873.14624 c 0,0 0.52335,-14.30825 9.85048,-18.99916 -1.44867,3.30172 -5.50447,9.094 -5.50447,9.094 z"
       id="path4009"
       inkscape:connector-curvature="0"
       sodipodi:nodetypes="cccc" />
    <path
       style="fill:#fbb35f;fill-opacity:1;fill-rule:evenodd;stroke:none"
       d="m 184.93527,855.36218 c 0,-10 40,-10 40,0 0,20 18.06473,33 13.06473,60 -8,17 -58,17 -66,0 -5,-27 12.93527,-40 12.93527,-60 z"
       id="path2984"
       inkscape:connector-curvature="0"
       sodipodi:nodetypes="ccccc" />
    <path
       sodipodi:nodetypes="ccccc"
       inkscape:connector-curvature="0"
       id="path3962"
       d="m 187.28856,887.63119 c -2.85356,5.09434 -2.85356,10.09434 -0.12034,15.09434 8.19966,9 24.59896,9 34.62076,0 2.73322,-5 2.61289,-9.90566 0,-15 -5.58677,-5.90566 -30.97647,-6 -34.50042,-0.0943 z"
       style="fill:#f79f48;fill-opacity:1;fill-rule:evenodd;stroke:none" />
    <path
       style="fill:#461101;fill-opacity:1;fill-rule:evenodd;stroke:none"
       d="m 185.61215,885.63119 c -3.13208,5.09434 -3.13208,10.09434 -0.13208,15.09434 9,9 27,9 38,0 3,-5 2.86792,-9.90566 0,-15 -6.13208,-5.90566 -34,-6 -37.86792,-0.0943 z"
       id="path3756"
       inkscape:connector-curvature="0"
       sodipodi:nodetypes="ccccc" />
    <path
       sodipodi:nodetypes="szs"
       inkscape:connector-curvature="0"
       id="path3894"
       d="m 214.93527,865.36218 c 4,0 4,10 0,10 -4,0 -4,-10 0,-10 z"
       style="fill:#461101;fill-opacity:1;stroke:none" />
    <path
       style="fill:#461101;fill-opacity:1;stroke:none"
       d="m 194.93527,865.36218 c 4,0 4,10 0,10 -4,0 -4,-10 0,-10 z"
       id="path3950"
       inkscape:connector-curvature="0"
       sodipodi:nodetypes="szs" />
    <path
       sodipodi:nodetypes="szs"
       inkscape:connector-curvature="0"
       id="path4075"
       d="m 194.93527,865.36218 c 4,0 4,10 0,10 -4,0 -4,-10 0,-10 z"
       style="fill:#461101;fill-opacity:1;stroke:none" />
    <path
       style="fill:#c6791f;fill-opacity:1;fill-rule:evenodd;stroke:none"
       d="m 203.66168,844.56501 c -8.45513,3.42551 -14.32131,5.93841 -20,3 0,0 0,7 10,7 10,0 10,-10 10,-10"
       id="path3952"
       inkscape:connector-curvature="0"
       sodipodi:nodetypes="ccsc" />
    <path
       sodipodi:nodetypes="ccsc"
       inkscape:connector-curvature="0"
       id="path3954"
       d="m 207.66168,844.56501 c 8.45513,3.42551 14.32133,5.93841 20,3 0,0 0,7 -10,7 -10,0 -10,-10 -10,-10"
       style="fill:#c6791f;fill-opacity:1;fill-rule:evenodd;stroke:none" />
    <g
       id="g4266"
       transform="translate(-2,-4)">
      <path
         sodipodi:nodetypes="zzz"
         inkscape:connector-curvature="0"
         id="path3964"
         d="m 234.93527,906.36218 c 3,0 3,4 0,4 -3,0 -3,-4 0,-4 z"
         style="fill:#f59a3f;fill-opacity:1;stroke:none" />
      <path
         style="fill:#f59a3f;fill-opacity:1;stroke:none"
         d="m 236.93527,912.36218 c 3,0 3,4 0,4 -3,0 -3,-4 0,-4 z"
         id="path3966"
         inkscape:connector-curvature="0"
         sodipodi:nodetypes="zzz" />
      <path
         sodipodi:nodetypes="zzz"
         inkscape:connector-curvature="0"
         id="path3968"
         d="m 230.93999,910.59803 c 3,0 3,4 0,4 -3,0 -3,-4 0,-4 z"
         style="fill:#f59a3f;fill-opacity:1;stroke:none" />
    </g>
    <g
       id="g4271"
       transform="translate(2,-4)">
      <path
         style="fill:#f59a3f;fill-opacity:1;stroke:none"
         d="m 174.9153,906.67082 c -3,0 -3,4 0,4 3,0 3,-4 0,-4 z"
         id="path3977"
         inkscape:connector-curvature="0"
         sodipodi:nodetypes="zzz" />
      <path
         sodipodi:nodetypes="zzz"
         inkscape:connector-curvature="0"
         id="path3979"
         d="m 172.9153,912.67082 c -3,0 -3,4 0,4 3,0 3,-4 0,-4 z"
         style="fill:#f59a3f;fill-opacity:1;stroke:none" />
      <path
         style="fill:#f59a3f;fill-opacity:1;stroke:none"
         d="m 178.91058,910.90667 c -3,0 -3,4 0,4 3,0 3,-4 0,-4 z"
         id="path3981"
         inkscape:connector-curvature="0"
         sodipodi:nodetypes="zzz" />
    </g>
    <path
       style="fill:#fec06d;fill-opacity:1;fill-rule:evenodd;stroke:none"
       d="m 180,174 50,0 3,29 -53,-3 z"
       id="path4181"
       inkscape:connector-curvature="0"
       transform="translate(0,752.36218)"
       sodipodi:nodetypes="ccccc" />
    <path
       style="fill:#f89841;fill-opacity:1;fill-rule:evenodd;stroke:none"
       d="m 180,172 c 16.97796,9.75381 33.63932,9.58746 50,0 l 0,4 c -16.45397,9.67747 -33.1346,9.04236 -50,0 z"
       id="path4192"
       inkscape:connector-curvature="0"
       transform="translate(0,752.36218)"
       sodipodi:nodetypes="ccccc" />
    <g
       id="g4183">
      <path
         sodipodi:nodetypes="ccccc"
         inkscape:connector-curvature="0"
         id="path4073"
         d="m 180,922.36218 0,4 c 20,10 30,10 50,0 l 0,-4 c -20,4 -30,4 -50,0 z"
         style="fill:#431000;fill-opacity:1;fill-rule:evenodd;stroke:none" />
      <path
         sodipodi:nodetypes="szs"
         inkscape:connector-curvature="0"
         id="path4177"
         d="m 205.00617,925.35909 c 4,0 4,6 0,6 -4,0 -4,-6 0,-6 z"
         style="fill:#e29782;fill-opacity:1;stroke:none" />
      <path
         style="fill:#f4694a;fill-opacity:1;stroke:none"
         d="m 205.00617,926.13069 c 2.86831,0 2.86831,4.4568 0,4.4568 -2.86831,0 -2.86831,-4.4568 0,-4.4568 z"
         id="path4179"
         inkscape:connector-curvature="0"
         sodipodi:nodetypes="szs" />
    </g>
    <g
       id="g4202">
      <path
         sodipodi:nodetypes="cccc"
         transform="translate(0,752.36218)"
         inkscape:connector-curvature="0"
         id="path4194"
         d="m 230,174 c 10,6 0,16 0,16 0,0 -9,22 -20,17 -5,-9 10,-7 20,-33 z"
         style="fill:#f89841;fill-opacity:1;fill-rule:evenodd;stroke:none" />
      <path
         sodipodi:nodetypes="cscc"
         inkscape:connector-curvature="0"
         id="path4196"
         d="m 229.56351,942.28384 c 2.35702,-2.35702 3.43649,-10.92166 10,0 1.71701,2.85709 2.79351,4.72132 0.43649,7.07834 -18,11 -15.44826,-1.63702 -10.43649,-7.07834 z"
         style="fill:#f89841;fill-opacity:1;fill-rule:evenodd;stroke:none" />
      <path
         style="fill:#f89841;fill-opacity:1;fill-rule:evenodd;stroke:none"
         d="m 224.09351,948.73663 c -3.27881,0.60039 -9.77034,9.46258 5.82017,13.19567 11.08632,3.42988 0.13602,-18.24778 -5.82017,-13.19567 z"
         id="path4198"
         inkscape:connector-curvature="0"
         sodipodi:nodetypes="ccc" />
    </g>
    <path
       style="fill:#f89841;fill-opacity:1;fill-rule:evenodd;stroke:none"
       d="m 233,185 c 5.32485,-3.4501 8.27477,-8.48348 12,-13 0.64531,8.09688 -3.58886,12.94076 -9,17 z"
       id="path4200"
       inkscape:connector-curvature="0"
       transform="translate(0,752.36218)"
       sodipodi:nodetypes="cccc" />
    <path
       sodipodi:nodetypes="cccc"
       inkscape:connector-curvature="0"
       id="path4209"
       d="m 180.13304,926.36218 c -10,6 0,16 0,16 0,0 10.86696,20 21.86696,15 8.86696,-9 -12,-5 -21.86696,-31 z"
       style="fill:#f89841;fill-opacity:1;fill-rule:evenodd;stroke:none" />
    <path
       sodipodi:nodetypes="cscc"
       inkscape:connector-curvature="0"
       id="path4211"
       d="m 180.56953,942.28384 c -2.35702,-2.35702 -3.43649,-10.92166 -10,0 -1.71701,2.85709 -2.79351,4.72132 -0.43649,7.07834 18,11 15.44826,-1.63702 10.43649,-7.07834 z"
       style="fill:#f89841;fill-opacity:1;fill-rule:evenodd;stroke:none" />
    <path
       style="fill:#f89841;fill-opacity:1;fill-rule:evenodd;stroke:none"
       d="m 186.03953,948.73663 c 3.27881,0.60039 9.77034,9.46258 -5.82017,13.19567 -11.08632,3.42988 -0.13602,-18.24778 5.82017,-13.19567 z"
       id="path4213"
       inkscape:connector-curvature="0"
       sodipodi:nodetypes="ccc" />
    <path
       style="fill:#fffefc;fill-opacity:1;fill-rule:evenodd;stroke:none"
       d="m 176,936.36218 7,-5 c 0,0 27,18 20,27 -9,9 -27,-22 -27,-22 z"
       id="path4218"
       inkscape:connector-curvature="0"
       sodipodi:nodetypes="cccc" />
    <path
       style="fill:#ddbca9;fill-opacity:1;fill-rule:evenodd;stroke:none"
       d="m 181.68772,945.59547 1.33211,1.79596 6.02541,-6.13957 z"
       id="path4220"
       inkscape:connector-curvature="0"
       sodipodi:nodetypes="cccc" />
    <path
       sodipodi:nodetypes="cccc"
       inkscape:connector-curvature="0"
       id="path4222"
       d="m 188.26668,935.29028 -1.62373,-1.53735 -4.86775,7.09259 z"
       style="fill:#ddbca9;fill-opacity:1;fill-rule:evenodd;stroke:none" />
    <path
       sodipodi:nodetypes="cccc"
       inkscape:connector-curvature="0"
       id="path4224"
       d="m 196.76815,942.42836 -1.62374,-1.53736 -4.86774,7.0926 z"
       style="fill:#ddbca9;fill-opacity:1;fill-rule:evenodd;stroke:none" />
    <path
       style="fill:#ddbca9;fill-opacity:1;fill-rule:evenodd;stroke:none"
       d="m 190.89395,955.67464 1.62374,1.53736 4.86774,-7.0926 z"
       id="path4226"
       inkscape:connector-curvature="0"
       sodipodi:nodetypes="cccc" />
    <path
       inkscape:connector-curvature="0"
       id="path4278"
       d="m 153,978.39967 0,-2 2,0 0,2 2,0 0,2 -2,0 0,2 -2,0 0,-2 -2,0 0,-2 z"
       style="fill:#f5723c;fill-opacity:1;fill-rule:evenodd;stroke:none" />
    <path
       style="fill:#f5723c;fill-opacity:1;fill-rule:evenodd;stroke:none"
       d="m 282.32959,977.85407 0,-2 2,0 0,2 2,0 0,2 -2,0 0,2 -2,0 0,-2 -2,0 0,-2 z"
       id="path4280"
       inkscape:connector-curvature="0" />
    <g
       id="g4316"
       transform="translate(10.475656,-1.5276998)">
      <path
         transform="translate(0,752.36218)"
         sodipodi:nodetypes="czc"
         inkscape:connector-curvature="0"
         id="path4282"
         d="m 160,227 c 7.23618,0.17374 5.18333,-12.92667 2,-5 -3.18333,7.92667 -2,11 5,8"
         style="fill:none;stroke:#682d1d;stroke-width:2;stroke-miterlimit:4;stroke-opacity:1;stroke-dasharray:none" />
      <path
         inkscape:connector-curvature="0"
         id="path4284"
         d="m 169.22014,972.75874 1.72858,1.006 -1.006,1.72858 -1.72858,-1.006 z"
         style="fill:#682d1d;fill-opacity:1;stroke:#682d1d;stroke-width:1;stroke-miterlimit:4;stroke-opacity:1;stroke-dasharray:none" />
      <path
         sodipodi:nodetypes="cc"
         transform="translate(0,752.36218)"
         inkscape:connector-curvature="0"
         id="path4286"
         d="m 168,224 c 0,0 -7,11 5,5"
         style="fill:none;stroke:#682d1d;stroke-width:2;stroke-miterlimit:4;stroke-opacity:1;stroke-dasharray:none" />
      <path
         style="fill:none;stroke:#682d1d;stroke-width:2;stroke-miterlimit:4;stroke-opacity:1;stroke-dasharray:none"
         d="m 172,979.36218 c 7.23618,0.17374 5.18333,-12.92667 2,-5 -3.18333,7.92667 -2,11 5,8"
         id="path4288"
         inkscape:connector-curvature="0"
         sodipodi:nodetypes="czc" />
    </g>
    <g
       id="g4322"
       transform="translate(16.804698,-1.309457)">
      <path
         sodipodi:nodetypes="ccc"
         transform="translate(0,752.36218)"
         inkscape:connector-curvature="0"
         id="path4290"
         d="m 184,230 c 0,0 11,-1 4,-7 -6,0 -5,27 -5,27"
         style="fill:none;stroke:#682d1d;stroke-width:2;stroke-miterlimit:4;stroke-opacity:1;stroke-dasharray:none" />
      <path
         sodipodi:nodetypes="csc"
         inkscape:connector-curvature="0"
         id="path4292"
         d="m 190.25406,979.36218 c 0,0 8.51944,0.16025 5.74594,-4 -2,-3 -10.50617,9 2.25406,7"
         style="fill:none;stroke:#682d1d;stroke-width:2;stroke-miterlimit:4;stroke-opacity:1;stroke-dasharray:none" />
      <path
         sodipodi:nodetypes="cc"
         inkscape:connector-curvature="0"
         id="path4294"
         d="m 200.76852,971.05354 c -2,9 -5,13 3.38108,11"
         style="fill:none;stroke:#682d1d;stroke-width:2;stroke-miterlimit:4;stroke-opacity:1;stroke-dasharray:none" />
      <path
         sodipodi:nodetypes="cc"
         inkscape:connector-curvature="0"
         id="path4296"
         d="m 197.6142,975.1307 c 1.45134,-0.0239 3,0 5,0"
         style="fill:none;stroke:#682d1d;stroke-width:2;stroke-miterlimit:4;stroke-opacity:1;stroke-dasharray:none" />
    </g>
    <g
       id="g4328"
       transform="translate(22.260769,-1.309457)">
      <path
         sodipodi:nodetypes="ccc"
         inkscape:connector-curvature="0"
         id="path4300"
         d="m 214.89815,977.1307 c 0,-4 -4.76403,-1.9017 -6,2 C 207,985.36218 214,981.36218 216,981.36218"
         style="fill:none;stroke:#682d1d;stroke-width:2;stroke-miterlimit:4;stroke-opacity:1;stroke-dasharray:none" />
      <path
         sodipodi:nodetypes="zsz"
         inkscape:connector-curvature="0"
         id="path4304"
         d="m 221,975.36218 c 4,0 2.75609,7 -2.30864,7 -5.06473,0 -1.69136,-7 2.30864,-7 z"
         style="fill:none;stroke:#682d1d;stroke-width:2;stroke-miterlimit:4;stroke-opacity:1;stroke-dasharray:none" />
      <path
         sodipodi:nodetypes="cc"
         inkscape:connector-curvature="0"
         id="path4306"
         d="m 225,975.36218 c 0,0 -7,11 2,6"
         style="fill:none;stroke:#682d1d;stroke-width:2;stroke-miterlimit:4;stroke-opacity:1;stroke-dasharray:none" />
      <path
         sodipodi:nodetypes="csscc"
         transform="translate(0,752.36218)"
         inkscape:connector-curvature="0"
         id="path4308"
         d="m 226,230 c 0,0 3.34007,-7.14968 5,-7 1.48469,0.13387 -1.49071,4 0,4 3,0 5,-4 5,-4 0,0 -7.69753,10.92284 1,6"
         style="fill:none;stroke:#682d1d;stroke-width:2;stroke-miterlimit:4;stroke-opacity:1;stroke-dasharray:none" />
      <path
         style="fill:none;stroke:#682d1d;stroke-width:2;stroke-miterlimit:4;stroke-opacity:1;stroke-dasharray:none"
         d="m 236.01023,979.28502 c 0,0 8.51944,0.16025 5.74594,-4 -2,-3 -10.50617,9 2.25406,7"
         id="path4310"
         inkscape:connector-curvature="0"
         sodipodi:nodetypes="csc" />
    </g>
  </g>
</svg>
