<?xml version="1.0" encoding="UTF-8" standalone="no"?>
<!-- Created with Inkscape (http://www.inkscape.org/) -->

<svg
   xmlns:dc="http://purl.org/dc/elements/1.1/"
   xmlns:cc="http://creativecommons.org/ns#"
   xmlns:rdf="http://www.w3.org/1999/02/22-rdf-syntax-ns#"
   xmlns:svg="http://www.w3.org/2000/svg"
   xmlns="http://www.w3.org/2000/svg"
   xmlns:sodipodi="http://sodipodi.sourceforge.net/DTD/sodipodi-0.dtd"
   xmlns:inkscape="http://www.inkscape.org/namespaces/inkscape"
   width="400"
   height="300"
   id="svg2"
   version="1.1"
   inkscape:version="0.48.4 r9939"
   sodipodi:docname="my_horse.svg"
   inkscape:export-filename="/home/elena/Documents/Inkscape_v/dribbble_v/Horse/my_horse.png"
   inkscape:export-xdpi="90"
   inkscape:export-ydpi="90">
  <defs
     id="defs4" />
  <sodipodi:namedview
     id="base"
     pagecolor="#ffffff"
     bordercolor="#666666"
     borderopacity="1.0"
     inkscape:pageopacity="1"
     inkscape:pageshadow="2"
     inkscape:zoom="0.99"
     inkscape:cx="46.579846"
     inkscape:cy="204.93052"
     inkscape:document-units="px"
     inkscape:current-layer="layer1"
     showgrid="true"
     inkscape:window-width="1366"
     inkscape:window-height="718"
     inkscape:window-x="0"
     inkscape:window-y="0"
     inkscape:window-maximized="1">
    <inkscape:grid
       type="xygrid"
       id="grid2985"
       empspacing="10"
       visible="true"
       enabled="true"
       snapvisiblegridlinesonly="true" />
  </sodipodi:namedview>
  <metadata
     id="metadata7">
    <rdf:RDF>
      <cc:Work
         rdf:about="">
        <dc:format>image/svg+xml</dc:format>
        <dc:type
           rdf:resource="http://purl.org/dc/dcmitype/StillImage" />
        <dc:title></dc:title>
      </cc:Work>
    </rdf:RDF>
  </metadata>
  <g
     inkscape:label="Layer 1"
     inkscape:groupmode="layer"
     id="layer1"
     transform="translate(0,-752.36218)">
    <path
       style="fill:none;stroke:#b58357;stroke-width:8;stroke-miterlimit:4;stroke-opacity:1;stroke-dasharray:none"
       d="m 240,948.36218 5,3.91582 0,20.08418 -90,0 0,-19.90562 14,-10.09438 61,0 c 4.15383,-26.21997 -6.39723,-42.45095 -20,-50 -2.81153,-2.81153 -27,-9 -16,-30 m 1,-16 c -43.03983,23.06165 -15.09681,64.16166 -15,66 0,0 -6.40841,6.50526 -10,10 -30,-40 -10,-90 40.45455,-90 l -0.45455,8 10,2 c 20,20 10,10 38.04549,38.42071 -0.76366,2.17432 -2.90295,5.91421 -8.04549,11.57929 -3.25534,3.58611 -11.39728,-7.86163 -20,-8 -11.11927,-0.17884 -23.72399,9.27601 -35,-2"
       id="path2987"
       inkscape:connector-curvature="0"
       sodipodi:nodetypes="ccccccccccccccccssc" />
    <path
       style="fill:#471403;fill-opacity:1;fill-rule:evenodd;stroke:none"
       d="m 30.26013,738.70823 c -133.33333,153.33333 -66.66667,76.66667 0,0 z"
       id="path3754"
       inkscape:connector-curvature="0"
       sodipodi:nodetypes="cc" />
    <path
       sodipodi:nodetypes="szs"
       inkscape:connector-curvature="0"
       id="path3894"
       d="m 213.71909,855.66813 c 4,0 4,6 0,6 -4,0 -4,-6 0,-6 z"
       style="fill:#b58357;fill-opacity:1;stroke:#b58357;stroke-width:5;stroke-miterlimit:4;stroke-opacity:1;stroke-dasharray:none" />
  </g>
</svg>
