<?xml version="1.0" encoding="UTF-8" standalone="no"?>
<!-- Created with Inkscape (http://www.inkscape.org/) -->

<svg
   xmlns:dc="http://purl.org/dc/elements/1.1/"
   xmlns:cc="http://creativecommons.org/ns#"
   xmlns:rdf="http://www.w3.org/1999/02/22-rdf-syntax-ns#"
   xmlns:svg="http://www.w3.org/2000/svg"
   xmlns="http://www.w3.org/2000/svg"
   xmlns:sodipodi="http://sodipodi.sourceforge.net/DTD/sodipodi-0.dtd"
   xmlns:inkscape="http://www.inkscape.org/namespaces/inkscape"
   width="400"
   height="300"
   id="svg2"
   version="1.1"
   inkscape:version="0.48.4 r9939"
   sodipodi:docname="my_sova_rock.svg"
   inkscape:export-filename="/home/elena/Documents/Office/Inkscape/My works/dribble/Sova_rocket/my_sova_rock.png"
   inkscape:export-xdpi="90"
   inkscape:export-ydpi="90">
  <defs
     id="defs4">
    <filter
       inkscape:collect="always"
       id="filter3821">
      <feGaussianBlur
         inkscape:collect="always"
         stdDeviation="2.9656565"
         id="feGaussianBlur3823" />
    </filter>
  </defs>
  <sodipodi:namedview
     id="base"
     pagecolor="#efefef"
     bordercolor="#666666"
     borderopacity="1.0"
     inkscape:pageopacity="1"
     inkscape:pageshadow="2"
     inkscape:zoom="1.98"
     inkscape:cx="192.78881"
     inkscape:cy="187.0434"
     inkscape:document-units="px"
     inkscape:current-layer="layer1"
     showgrid="true"
     inkscape:window-width="1299"
     inkscape:window-height="744"
     inkscape:window-x="67"
     inkscape:window-y="24"
     inkscape:window-maximized="1">
    <inkscape:grid
       type="xygrid"
       id="grid2985"
       empspacing="10"
       visible="true"
       enabled="true"
       snapvisiblegridlinesonly="true" />
  </sodipodi:namedview>
  <metadata
     id="metadata7">
    <rdf:RDF>
      <cc:Work
         rdf:about="">
        <dc:format>image/svg+xml</dc:format>
        <dc:type
           rdf:resource="http://purl.org/dc/dcmitype/StillImage" />
        <dc:title />
      </cc:Work>
    </rdf:RDF>
  </metadata>
  <g
     inkscape:label="Layer 1"
     inkscape:groupmode="layer"
     id="layer1"
     transform="translate(0,-752.36215)">
    <path
       style="fill:#471403;fill-opacity:1;fill-rule:evenodd;stroke:none"
       d="m 263.59251,744.71137 c -133.33333,153.33333 -66.66667,76.66667 0,0 z"
       id="path3754"
       inkscape:connector-curvature="0"
       sodipodi:nodetypes="cc" />
    <path
       style="fill:#dddddd;fill-opacity:1;stroke:none"
       d="m 200.00701,946.90509 c 20.00701,0.15152 19.99299,9.84848 -0.007,9.84848 -20,0 -20,-10 0.007,-9.84848 z"
       id="path4146"
       inkscape:connector-curvature="0"
       sodipodi:nodetypes="zcz" />
    <path
       sodipodi:nodetypes="zsz"
       inkscape:connector-curvature="0"
       id="path3047"
       d="m 200,798.47074 c 98.85521,0 98.85521,148.28283 0,148.28283 -98.85522,0 -98.85522,-148.28283 0,-148.28283 z"
       style="fill:#f7f7f7;fill-opacity:1;stroke:none;filter:url(#filter3821)" />
    <path
       style="fill:#69cff7;fill-opacity:1;stroke:none"
       d="m 200,810.75357 c 80,0 80,120 0,120 -80,0 -80,-120 0,-120 z"
       id="path4177"
       inkscape:connector-curvature="0"
       sodipodi:nodetypes="zsz" />
    <path
       sodipodi:nodetypes="zcz"
       inkscape:connector-curvature="0"
       id="path4108"
       d="m 200.00701,920.90509 c 7.50505,0.15152 10.15152,5.20202 -0.50505,14.84848 -9.34343,-9.64646 -7,-15 0.50505,-14.84848 z"
       style="fill:#fdb44e;fill-opacity:1;stroke:#4a0000;stroke-opacity:1" />
    <g
       id="g4245"
       transform="translate(0,-11.608585)">
      <path
         sodipodi:nodetypes="ccccc"
         transform="translate(0,752.36215)"
         inkscape:connector-curvature="0"
         id="path4102"
         d="m 170,120 60,0 c 30,20 0,40 -10,60 -10,-50 -30,-50 -40,0 -10,-20 -40,-40 -10,-60"
         style="fill:#833c1e;fill-opacity:1;fill-rule:evenodd;stroke:#4a0000;stroke-width:1;stroke-miterlimit:4;stroke-opacity:1;stroke-dasharray:none" />
      <path
         sodipodi:nodetypes="cccc"
         inkscape:connector-curvature="0"
         id="path4100"
         d="M 199.79798,804.07932 C 140,862.36215 170,892.36215 190,923.37227 l 20,0 c 20.15407,-31.16419 50,-61.01012 -10.20202,-119.29295 z"
         style="fill:#a44e2b;fill-opacity:1;fill-rule:evenodd;stroke:#4a0000;stroke-width:1;stroke-miterlimit:4;stroke-opacity:1;stroke-dasharray:none" />
      <path
         inkscape:connector-curvature="0"
         id="path4106"
         d="m 177.07963,831.8111 c 0,-0.0902 2.34492,-3.52621 3.35473,-4.91563 3.13264,-4.31023 6.49381,-8.41263 10.74241,-13.11139 2.29519,-2.53838 8.44581,-8.88348 8.6112,-8.88348 0.10477,0 3.6659,3.55125 5.82228,5.80611 5.44847,5.69731 10.29588,11.45834 14.21034,16.88861 1.21205,1.68139 2.88171,4.12715 2.88171,4.22119 0,0.0258 -10.2651,0.047 -22.81133,0.047 -12.54624,0 -22.81134,-0.0236 -22.81134,-0.0524 z"
         style="fill:#f47646;fill-opacity:1;stroke:none" />
      <g
         id="g4138">
        <path
           style="fill:#fdb44e;fill-opacity:1;stroke:#4a0000;stroke-opacity:1"
           d="m 215.49905,852.36215 c 20,0 20,30 0,30 -20,0 -20,-30 0,-30 z"
           id="path4110"
           inkscape:connector-curvature="0"
           sodipodi:nodetypes="zcz" />
        <path
           sodipodi:nodetypes="zcz"
           inkscape:connector-curvature="0"
           id="path4112"
           d="m 215.49905,878.86215 c 15,0 15,-23 0,-23 -15,0 -15,23 0,23 z"
           style="fill:#4a0001;fill-opacity:1;stroke:none" />
        <path
           style="fill:#4a0001;fill-opacity:1;stroke:none"
           d="m 215.49905,878.86215 c 15,0 15,-23 0,-23 -15,0 -15,23 0,23 z"
           id="path4144"
           inkscape:connector-curvature="0"
           sodipodi:nodetypes="zcz" />
      </g>
      <g
         id="g4134">
        <path
           sodipodi:nodetypes="zcz"
           inkscape:connector-curvature="0"
           id="path4120"
           d="m 184.48114,852.27287 c 20,0 20,30 0,30 -20,0 -20,-30 0,-30 z"
           style="fill:#fdb44e;fill-opacity:1;stroke:#4a0000;stroke-opacity:1" />
        <path
           style="fill:#4a0001;fill-opacity:1;stroke:none"
           d="m 184.48114,878.77287 c 15,0 15,-23 0,-23 -15,0 -15,23 0,23 z"
           id="path4132"
           inkscape:connector-curvature="0"
           sodipodi:nodetypes="zcz" />
      </g>
      <path
         sodipodi:nodetypes="ccc"
         inkscape:connector-curvature="0"
         id="path4142"
         d="m 200,870.36215 c 5,10 9,9 0,18 -9,-9 -5,-8 0,-18 z"
         style="fill:#fdb44e;fill-opacity:1;stroke:#4a0000;stroke-opacity:1" />
      <path
         sodipodi:nodetypes="cc"
         transform="translate(0,752.36215)"
         inkscape:connector-curvature="0"
         id="path4243"
         d="m 177,79 46,0"
         style="fill:#4a0000;fill-opacity:1;fill-rule:evenodd;stroke:#480001;stroke-width:1;stroke-miterlimit:4;stroke-opacity:1;stroke-dasharray:none" />
    </g>
    <path
       style="fill:none;stroke:#f47644;stroke-width:6;stroke-miterlimit:4;stroke-opacity:1;stroke-dasharray:none"
       d="M 50.0625,982.36215 C 50,1002.3621 48.027305,1009.3658 60,1009.3621 c 11.930276,-0 10,-7 10.0625,-26.99995"
       id="path3773"
       inkscape:connector-curvature="0"
       sodipodi:nodetypes="csc" />
    <path
       style="fill:none;stroke:#f47644;stroke-width:6;stroke-miterlimit:4;stroke-opacity:1;stroke-dasharray:none"
       d="m 80.0625,982.36215 0,30.00005"
       id="path3775"
       inkscape:connector-curvature="0" />
    <path
       style="fill:none;stroke:#f47644;stroke-width:6;stroke-miterlimit:4;stroke-opacity:1;stroke-dasharray:none"
       d="m 80.0625,997.36215 20,0"
       id="path3777"
       inkscape:connector-curvature="0" />
    <path
       style="fill:none;stroke:#f47644;stroke-width:6;stroke-miterlimit:4;stroke-opacity:1;stroke-dasharray:none"
       d="m 100.0625,982.36215 0,30.00005"
       id="path3779"
       inkscape:connector-curvature="0" />
    <path
       inkscape:connector-curvature="0"
       id="path3790"
       d="m 140.0625,982.36215 0,30.00005"
       style="fill:none;stroke:#f47644;stroke-width:6;stroke-miterlimit:4;stroke-opacity:1;stroke-dasharray:none" />
    <path
       inkscape:connector-curvature="0"
       id="path3792"
       d="m 140.0625,997.36215 20,0"
       style="fill:none;stroke:#f47644;stroke-width:6;stroke-miterlimit:4;stroke-opacity:1;stroke-dasharray:none" />
    <path
       inkscape:connector-curvature="0"
       id="path3794"
       d="m 160.0625,982.36215 0,30.00005"
       style="fill:none;stroke:#f47644;stroke-width:6;stroke-miterlimit:4;stroke-opacity:1;stroke-dasharray:none" />
    <path
       style="fill:none;stroke:#480100;stroke-width:6;stroke-miterlimit:4;stroke-opacity:1;stroke-dasharray:none"
       d="M 180.0625,1012.3622 180,985.36215 c 0,0 20,-3 20.0625,4 0.10756,12.04645 -20.0625,9 -20.0625,9 0,0 20,-2 20.0625,14.00005"
       id="path3796"
       inkscape:connector-curvature="0"
       sodipodi:nodetypes="ccscc" />
    <path
       style="fill:none;stroke:#480100;stroke-width:6;stroke-miterlimit:4;stroke-opacity:1;stroke-dasharray:none"
       d="m 220,985.36215 c 12,0 13,23.99995 0,23.99995 -13,0 -12,-23.99995 0,-23.99995 z"
       id="path3846"
       inkscape:connector-curvature="0"
       sodipodi:nodetypes="zcz" />
    <path
       style="fill:none;stroke:#480100;stroke-width:6;stroke-miterlimit:4;stroke-opacity:1;stroke-dasharray:none"
       d="m 260,986.36215 c -3,0 -20,-8 -19.9375,11 0.0625,18.99995 20,13.00005 20,13.00005"
       id="path3848"
       inkscape:connector-curvature="0"
       sodipodi:nodetypes="csc" />
    <path
       style="fill:none;stroke:#480100;stroke-width:6;stroke-miterlimit:4;stroke-opacity:1;stroke-dasharray:none"
       d="m 270.0625,982.36215 0,30.00005"
       id="path3850"
       inkscape:connector-curvature="0" />
    <path
       style="fill:none;stroke:#480100;stroke-width:6;stroke-miterlimit:4;stroke-opacity:1;stroke-dasharray:none"
       d="m 290.0625,982.36215 c 0,12 -10,15 -20,15"
       id="path3852"
       inkscape:connector-curvature="0"
       sodipodi:nodetypes="cc" />
    <path
       style="fill:none;stroke:#480100;stroke-width:6;stroke-miterlimit:4;stroke-opacity:1;stroke-dasharray:none"
       d="m 270.0625,997.36215 c 0,0 20,-2 20,15.00005"
       id="path3854"
       inkscape:connector-curvature="0"
       sodipodi:nodetypes="cc" />
    <path
       style="fill:none;stroke:#480100;stroke-width:6;stroke-miterlimit:4;stroke-opacity:1;stroke-dasharray:none"
       d="m 320,985.36215 -19,0 0,23.99995 19,0"
       id="path3856"
       inkscape:connector-curvature="0"
       sodipodi:nodetypes="cccc" />
    <path
       style="fill:none;stroke:#480100;stroke-width:6;stroke-miterlimit:4;stroke-opacity:1;stroke-dasharray:none"
       d="m 300.0625,997.36215 20,0"
       id="path3858"
       inkscape:connector-curvature="0" />
    <g
       id="g3864"
       transform="translate(-39.9375,0)"
       style="stroke-width:6;stroke-miterlimit:4;stroke-dasharray:none">
      <path
         sodipodi:nodetypes="cc"
         transform="translate(0,752.36215)"
         inkscape:connector-curvature="0"
         id="path3860"
         d="m 368.9375,233 23,0"
         style="fill:none;stroke:#480100;stroke-width:6;stroke-miterlimit:4;stroke-opacity:1;stroke-dasharray:none" />
      <path
         transform="translate(0,752.36215)"
         inkscape:connector-curvature="0"
         id="path3862"
         d="m 380,232 0,28"
         style="fill:none;stroke:#480100;stroke-width:6;stroke-miterlimit:4;stroke-opacity:1;stroke-dasharray:none" />
    </g>
    <path
       sodipodi:nodetypes="csc"
       inkscape:connector-curvature="0"
       id="path3978"
       d="M 110.0625,982.36215 C 110,1002.3621 108.0273,1009.3658 120,1009.3621 c 11.93028,0 10,-7 10.0625,-26.99995"
       style="fill:none;stroke:#f47644;stroke-width:6;stroke-miterlimit:4;stroke-opacity:1;stroke-dasharray:none" />
  </g>
</svg>
