<?xml version="1.0" encoding="UTF-8" standalone="no"?>
<!-- Created with Inkscape (http://www.inkscape.org/) -->

<svg
   xmlns:dc="http://purl.org/dc/elements/1.1/"
   xmlns:cc="http://creativecommons.org/ns#"
   xmlns:rdf="http://www.w3.org/1999/02/22-rdf-syntax-ns#"
   xmlns:svg="http://www.w3.org/2000/svg"
   xmlns="http://www.w3.org/2000/svg"
   xmlns:sodipodi="http://sodipodi.sourceforge.net/DTD/sodipodi-0.dtd"
   xmlns:inkscape="http://www.inkscape.org/namespaces/inkscape"
   width="400"
   height="300"
   id="svg2"
   version="1.1"
   inkscape:version="0.48.4 r9939"
   sodipodi:docname="my_sausage.svg.2014_11_10_21_54_24.0.svg"
   inkscape:export-filename="/home/elena/Documents/Office/Inkscape/My works/dribble/Sausage/my_sausage.svg.2014_11_10_21_54_24.0.png"
   inkscape:export-xdpi="90"
   inkscape:export-ydpi="90">
  <defs
     id="defs4" />
  <sodipodi:namedview
     id="base"
     pagecolor="#fef3d5"
     bordercolor="#666666"
     borderopacity="1.0"
     inkscape:pageopacity="1"
     inkscape:pageshadow="2"
     inkscape:zoom="0.49497475"
     inkscape:cx="-92.085522"
     inkscape:cy="160.79089"
     inkscape:document-units="px"
     inkscape:current-layer="layer1"
     showgrid="true"
     inkscape:window-width="1299"
     inkscape:window-height="744"
     inkscape:window-x="67"
     inkscape:window-y="24"
     inkscape:window-maximized="1">
    <inkscape:grid
       type="xygrid"
       id="grid2985"
       empspacing="10"
       visible="true"
       enabled="true"
       snapvisiblegridlinesonly="true" />
  </sodipodi:namedview>
  <metadata
     id="metadata7">
    <rdf:RDF>
      <cc:Work
         rdf:about="">
        <dc:format>image/svg+xml</dc:format>
        <dc:type
           rdf:resource="http://purl.org/dc/dcmitype/StillImage" />
        <dc:title></dc:title>
      </cc:Work>
    </rdf:RDF>
  </metadata>
  <g
     inkscape:label="Layer 1"
     inkscape:groupmode="layer"
     id="layer1"
     transform="translate(0,-752.36218)">
    <g
       id="g4131"
       transform="matrix(0.99524891,0.09736323,-0.09736323,0.99524891,88.383855,-10.406108)">
      <g
         style="fill:#f8deb9;fill-opacity:1;stroke:none"
         id="g3782"
         transform="matrix(0.84720386,-0.53126794,0.53126794,0.84720386,-463.42046,252.93363)">
        <path
           sodipodi:nodetypes="ccsccc"
           transform="translate(0,752.36218)"
           inkscape:connector-curvature="0"
           id="path3784"
           d="m 230.1564,163.24185 c 58.29823,1.14728 67.8328,4.76556 134.60307,11.22552 14.73252,0.97606 3.14056,24.59668 12.89515,24.61128 9.43397,0.0141 11.6314,19.0974 -2.15332,22.25676 -27.56943,6.31872 -74.83989,2.64394 -133.13812,1.49666 -22.25676,-2.15332 -45.0889,-44.79946 -12.20678,-59.59022 z"
           style="fill:#f8deb9;fill-opacity:1;stroke:none" />
        <path
           sodipodi:nodetypes="ccccc"
           inkscape:connector-curvature="0"
           id="path3786"
           d="m 234.49901,929.91711 c 3.69877,-4.54905 67.37822,8.21424 138.08651,8.90214 0.40242,14.41659 6.44757,12.30564 2.31216,13.25345 -13.78472,3.15936 -122.42629,-2.40929 -130.38118,0.8648 -16.97233,8.24258 -28.60373,-10.85482 -10.01749,-23.02039 z"
           style="fill:#f8deb9;fill-opacity:1;stroke:none" />
      </g>
      <g
         transform="matrix(0.84720386,-0.53126794,0.53126794,0.84720386,-463.42046,244.93363)"
         id="g3778">
        <path
           style="fill:#fea003;fill-opacity:1;stroke:#771f1e;stroke-width:2;stroke-miterlimit:4;stroke-opacity:1;stroke-dasharray:none"
           d="m 230.1564,163.24185 c 58.29823,1.14728 67.8328,4.76556 134.60307,11.22552 14.73252,0.97606 3.14056,24.59668 12.89515,24.61128 9.43397,0.0141 11.6314,19.0974 -2.15332,22.25676 -27.56943,6.31872 -74.83989,2.64394 -133.13812,1.49666 -22.25676,-2.15332 -45.0889,-44.79946 -12.20678,-59.59022 z"
           id="path2987"
           inkscape:connector-curvature="0"
           transform="translate(0,752.36218)"
           sodipodi:nodetypes="ccsccc" />
        <path
           style="fill:#fee066;fill-opacity:1;stroke:#771f1e;stroke-width:2;stroke-miterlimit:4;stroke-opacity:1;stroke-dasharray:none"
           d="m 234.49901,929.91711 c 3.69877,-4.54905 67.37822,8.21424 138.08651,8.90214 0.40242,14.41659 6.44757,12.30564 2.31216,13.25345 -13.78472,3.15936 -122.42629,-2.40929 -130.38118,0.8648 -16.97233,8.24258 -28.60373,-10.85482 -10.01749,-23.02039 z"
           id="path3776"
           inkscape:connector-curvature="0"
           sodipodi:nodetypes="ccccc" />
      </g>
    </g>
    <path
       style="fill:#471403;fill-opacity:1;fill-rule:evenodd;stroke:none"
       d="m 26.11605,729.02899 c -133.33333,153.33333 -66.66667,76.66667 0,0 z"
       id="path3754"
       inkscape:connector-curvature="0"
       sodipodi:nodetypes="cc" />
    <g
       id="g4115"
       transform="translate(32,6)">
      <path
         sodipodi:nodetypes="ccccc"
         inkscape:connector-curvature="0"
         id="path3788"
         d="m 59.571068,1008.1929 c 40,-20.00004 80.000002,-30.00004 50.000002,-10.00004 10,0 50.42893,-15.83072 10.42893,14.16934 -20,10 -40,20 -60.428932,15.8306 -9.571068,-5.8306 -10,-9.9999 0,-19.9999 z"
         style="fill:#f8deb9;fill-opacity:1;stroke:none" />
      <path
         sodipodi:nodetypes="ccccc"
         inkscape:connector-curvature="0"
         id="path3790"
         d="m 70,812.36218 c 0,-30 40,-30 40,0 l 0,120 c 0,30 -40,30 -40,0 z"
         style="fill:#ee6203;fill-opacity:1;stroke:#741a24;stroke-width:2;stroke-miterlimit:4;stroke-opacity:1;stroke-dasharray:none" />
      <path
         sodipodi:nodetypes="ccscscscccc"
         transform="translate(0,752.36218)"
         inkscape:connector-curvature="0"
         id="path3850"
         d="m 110,90 c 10,-19.492789 21,-35.363645 31,-65 0,0 -6.83035,-2.975102 -4,-5 2.33208,-1.668422 6,0 6,0 0,0 0.85068,-7.71402 4,-8 1.89737,-0.172295 0,7 0,7 0,0 1.1551,-7.339933 4,-6 2.86084,1.347439 -1,8 -1,8 0,0 2.87276,-7.315973 5,-5 2,4 -45,84 -45,84 z"
         style="fill:#dc5909;fill-opacity:1;stroke:#771f1e;stroke-width:2;stroke-miterlimit:4;stroke-opacity:1;stroke-dasharray:none" />
      <path
         style="fill:#dc5909;fill-opacity:1;stroke:#771f1e;stroke-width:2;stroke-miterlimit:4;stroke-opacity:1;stroke-dasharray:none"
         d="m 69.06207,842.36218 c -10,-19.49279 -21.000004,-35.36364 -31.000004,-65 0,0 6.83035,-2.9751 4,-5 -2.33208,-1.66842 -6,0 -6,0 0,0 -0.85068,-7.71402 -4,-8 -1.89737,-0.17229 0,7 0,7 0,0 -1.1551,-7.33993 -4,-6 -2.86084,1.34744 1,8 1,8 0,0 -2.87276,-7.31597 -5,-5 -2,4 45.000004,84 45.000004,84 z"
         id="path3852"
         inkscape:connector-curvature="0"
         sodipodi:nodetypes="ccscscscccc" />
      <path
         sodipodi:nodetypes="cc"
         inkscape:connector-curvature="0"
         id="path3854"
         d="m 73.989848,818.06903 c -2,12 16.010152,20.29315 23.010152,0.29315"
         style="fill:none;stroke:#771f1e;stroke-width:2;stroke-miterlimit:4;stroke-opacity:1;stroke-dasharray:none" />
      <g
         transform="translate(-4.2931483,-0.25253813)"
         id="g4097">
        <path
           style="fill:#ffffff;fill-opacity:1;stroke:#741a24;stroke-opacity:1"
           d="m 80,804.36218 c 5,0 5,8 0,8 -5,0 -5,-8 0,-8 z"
           id="path4093"
           inkscape:connector-curvature="0"
           sodipodi:nodetypes="zcz" />
        <path
           sodipodi:nodetypes="zcz"
           inkscape:connector-curvature="0"
           id="path4095"
           d="m 80,806.86218 c 2,0 2,3 0,3 -2,0 -2,-3 0,-3 z"
           style="fill:#771f1e;fill-opacity:1;stroke:none" />
      </g>
      <g
         transform="translate(16.211928,0)"
         id="g4101">
        <path
           sodipodi:nodetypes="zcz"
           inkscape:connector-curvature="0"
           id="path4103"
           d="m 80,804.36218 c 5,0 5,8 0,8 -5,0 -5,-8 0,-8 z"
           style="fill:#ffffff;fill-opacity:1;stroke:#741a24;stroke-opacity:1" />
        <path
           style="fill:#771f1e;fill-opacity:1;stroke:none"
           d="m 80,806.86218 c 2,0 2,3 0,3 -2,0 -2,-3 0,-3 z"
           id="path4105"
           inkscape:connector-curvature="0"
           sodipodi:nodetypes="zcz" />
      </g>
      <path
         sodipodi:nodetypes="csssssssssscc"
         transform="translate(0,752.36218)"
         inkscape:connector-curvature="0"
         id="path4109"
         d="m 90,90 c 5.058486,1.235737 -7.086975,14.85504 -4,20 3.710082,6.18347 16.36837,11.6872 14,20 -3.195399,11.21559 -6.171349,7.79154 -8,14 -1.14711,3.89455 6.79337,10.83189 8,16 0.91692,3.92725 -6.435473,6.47399 -10,10 -4.844577,4.79223 2.09902,15 -3,15 -7,0 -11,-8 -7,-15 2.390389,-4.18318 10,-6.61487 10,-10 0,-7.11354 -10.177091,-13.78637 -10,-16 0.501545,-6.26929 5.888815,-4.99455 10,-14 3.460769,-7.58073 -13,-6 -15,-20 3,-10 7,-20 15,-20 z"
         style="fill:#fdc800;fill-opacity:1;stroke:#741a24;stroke-width:2;stroke-miterlimit:4;stroke-opacity:1;stroke-dasharray:none" />
      <path
         transform="translate(0,752.36218)"
         sodipodi:nodetypes="cccscc"
         inkscape:connector-curvature="0"
         id="path4111"
         d="m 100,192 c 0,0 -20,-12 -50,1 -15,10 -24,39 -24,39 -13,-1 -16,6 1,7 9.982744,0.58722 8,-29 26,-40 25,-11 47,-3 47,-3"
         style="fill:#ed6102;fill-opacity:1;stroke:#741a24;stroke-width:2;stroke-miterlimit:4;stroke-opacity:1;stroke-dasharray:none" />
      <path
         style="fill:#ed6102;fill-opacity:1;stroke:#741a24;stroke-width:2;stroke-miterlimit:4;stroke-opacity:1;stroke-dasharray:none"
         d="m 83,954.36218 c 0,0 -3,18 17,18 30,-7 40,-13 40,-13 9.12341,9.31455 10,3 0,-7 -20,10 -20,10 -39,15 -13,1 -11,-12 -11,-12"
         id="path4113"
         inkscape:connector-curvature="0"
         sodipodi:nodetypes="cccccc" />
    </g>
  </g>
</svg>
