<?xml version="1.0" encoding="UTF-8" standalone="no"?>
<!-- Created with Inkscape (http://www.inkscape.org/) -->

<svg
   xmlns:dc="http://purl.org/dc/elements/1.1/"
   xmlns:cc="http://creativecommons.org/ns#"
   xmlns:rdf="http://www.w3.org/1999/02/22-rdf-syntax-ns#"
   xmlns:svg="http://www.w3.org/2000/svg"
   xmlns="http://www.w3.org/2000/svg"
   xmlns:sodipodi="http://sodipodi.sourceforge.net/DTD/sodipodi-0.dtd"
   xmlns:inkscape="http://www.inkscape.org/namespaces/inkscape"
   width="400"
   height="300"
   id="svg2"
   version="1.1"
   inkscape:version="0.48.4 r9939"
   sodipodi:docname="portfolio.svg"
   inkscape:export-filename="/home/elena/Documents/Office/Inkscape/My works/dribble/Portfolio/portfolio.png"
   inkscape:export-xdpi="90"
   inkscape:export-ydpi="90">
  <defs
     id="defs4" />
  <sodipodi:namedview
     id="base"
     pagecolor="#ffffff"
     bordercolor="#666666"
     borderopacity="1.0"
     inkscape:pageopacity="0.0"
     inkscape:pageshadow="2"
     inkscape:zoom="1.4142136"
     inkscape:cx="139.13356"
     inkscape:cy="-13.888149"
     inkscape:document-units="px"
     inkscape:current-layer="layer1"
     showgrid="true"
     inkscape:window-width="1299"
     inkscape:window-height="744"
     inkscape:window-x="67"
     inkscape:window-y="24"
     inkscape:window-maximized="1">
    <inkscape:grid
       type="xygrid"
       id="grid2985"
       empspacing="10"
       visible="true"
       enabled="true"
       snapvisiblegridlinesonly="true" />
  </sodipodi:namedview>
  <metadata
     id="metadata7">
    <rdf:RDF>
      <cc:Work
         rdf:about="">
        <dc:format>image/svg+xml</dc:format>
        <dc:type
           rdf:resource="http://purl.org/dc/dcmitype/StillImage" />
        <dc:title></dc:title>
      </cc:Work>
    </rdf:RDF>
  </metadata>
  <g
     inkscape:label="Layer 1"
     inkscape:groupmode="layer"
     id="layer1"
     transform="translate(0,-752.36218)">
    <g
       id="g4054"
       transform="translate(0,-4.9999999e-6)">
      <path
         sodipodi:nodetypes="ccccc"
         inkscape:connector-curvature="0"
         id="path3884"
         d="m 53.5,993.36218 6,9.00002 -20,20 -20,0 z"
         style="fill:#dddfd4;fill-opacity:1;stroke:none" />
      <path
         sodipodi:nodetypes="ccccccccc"
         inkscape:connector-curvature="0"
         id="path2987"
         d="m 64.5,852.36217 90,-80 90,0 90,80 0,90 -90,90.00003 -90,0 -90,-90.00003 z"
         style="fill:#272727;fill-opacity:1;stroke:#dddfd4;stroke-width:10;stroke-linecap:butt;stroke-linejoin:miter;stroke-miterlimit:4;stroke-opacity:1;stroke-dasharray:none" />
      <path
         style="fill:#272727;fill-opacity:1;stroke:#dddfd4;stroke-width:10;stroke-miterlimit:4;stroke-opacity:1;stroke-dasharray:none"
         d="m 325.5,962.36218 c 0,0 25,0 55,0 -30,30 -60,50.00002 -60,50.00002 l 5,-50.00002"
         id="path3913"
         inkscape:connector-curvature="0"
         sodipodi:nodetypes="cccc" />
      <path
         style="fill:#dddfd4;fill-opacity:1;stroke:none"
         d="m 330.5,912.36218 c 0,0 18.34315,-5.65685 24,0 0,20 0,45 0,45 l -14,0 z"
         id="path3917"
         inkscape:connector-curvature="0"
         sodipodi:nodetypes="ccccc" />
      <path
         style="fill:#dddfd4;fill-opacity:1;stroke:none"
         d="m 290.5,992.36218 -10,10.00002 19,0 11,30 70,0 0,-10 -60,0 0,-30.00002 -30,0"
         id="path3919"
         inkscape:connector-curvature="0"
         sodipodi:nodetypes="ccccccccc" />
      <path
         style="fill:#dddfd4;fill-opacity:1;stroke:none"
         d="m 349.5,992.36218 -10,10.00002 20,20 20,0 z"
         id="path3929"
         inkscape:connector-curvature="0"
         sodipodi:nodetypes="ccccc" />
      <path
         style="fill:#272727;fill-opacity:1;stroke:none"
         d="m 309.5,962.36218 54,60.00002 -46,0 z"
         id="path3927"
         inkscape:connector-curvature="0"
         sodipodi:nodetypes="cccc" />
      <path
         style="fill:#f24d37;fill-opacity:1;stroke:none"
         d="m 326.5,992.36218 -15.04505,-0.005 5.04505,30.00502 z"
         id="path3915"
         inkscape:connector-curvature="0"
         sodipodi:nodetypes="cccc" />
      <path
         sodipodi:nodetypes="cccc"
         inkscape:connector-curvature="0"
         id="path3880"
         d="m 74.5,962.36218 c 0,0 -25,0 -55,0 30,30 60,50.00002 60,50.00002 l -5,-50.00002"
         style="fill:#272727;fill-opacity:1;stroke:#dddfd4;stroke-width:10;stroke-miterlimit:4;stroke-opacity:1;stroke-dasharray:none" />
      <path
         sodipodi:nodetypes="cccc"
         inkscape:connector-curvature="0"
         id="path3886"
         d="m 69.5,992.36218 15.045049,-0.005 L 79.5,1022.3622 z"
         style="fill:#f24d37;fill-opacity:1;stroke:none" />
      <path
         sodipodi:nodetypes="ccccc"
         inkscape:connector-curvature="0"
         id="path3890"
         d="m 69.5,912.36218 c 0,0 -18.343146,-5.65685 -24,0 0,20 0,45 0,45 l 14,0 z"
         style="fill:#dddfd4;fill-opacity:1;stroke:none" />
      <path
         sodipodi:nodetypes="ccccccccc"
         inkscape:connector-curvature="0"
         id="path3888"
         d="m 109.5,992.36218 10,10.00002 -20,0 -10,30 -70,0 0,-10 60,0 0,-30.00002 30,0"
         style="fill:#dddfd4;fill-opacity:1;stroke:none" />
      <path
         style="fill:#f24d37;fill-opacity:1;stroke:none"
         d="m 86.999539,858.68472 75.000311,-69.88393 75.0003,0 75.00031,69.88393 0,78.61941 -75.00031,78.61947 -75.0003,0 -75.000311,-78.61947 z"
         id="path3776"
         inkscape:connector-curvature="0"
         sodipodi:nodetypes="ccccccccc" />
      <path
         sodipodi:nodetypes="cccc"
         inkscape:connector-curvature="0"
         id="path3882"
         d="m 99.5,962.36218 -66,60.00002 46,0 z"
         style="fill:#272727;fill-opacity:1;stroke:none" />
      <rect
         ry="10"
         y="912.36218"
         x="59.5"
         height="80"
         width="280"
         id="rect3778"
         style="fill:#272727;fill-opacity:1;fill-rule:evenodd;stroke:none" />
      <path
         inkscape:connector-curvature="0"
         id="path3858"
         d="m 139.5,912.36218 50,-50 10,50 z"
         style="fill:#ffffff;fill-opacity:1;stroke:none" />
      <path
         sodipodi:nodetypes="cccc"
         inkscape:connector-curvature="0"
         id="path3862"
         d="M 194.95431,884.38249 229.5,842.36218 l 2,70 z"
         style="fill:#ffffff;fill-opacity:1;stroke:none" />
      <path
         inkscape:connector-curvature="0"
         id="path3864"
         d="m 279.5,912.36218 -50,-70 0,70 z"
         style="fill:#dddfd4;fill-opacity:1;stroke:none" />
      <path
         inkscape:connector-curvature="0"
         id="path3860"
         d="m 189.5,862.36218 40,50 -30,0 z"
         style="fill:#dddfd4;fill-opacity:1;stroke:none" />
      <g
         transform="translate(-4.3203159,-0.12245388)"
         id="g3807">
        <path
           style="fill:#ffffff;fill-opacity:1;stroke:none"
           d="m 170,190 0,-10 20,0 0,10 z"
           id="path3764"
           inkscape:connector-curvature="0"
           transform="translate(0,752.36218)" />
        <path
           style="fill:#ffffff;fill-opacity:1;stroke:none"
           d="m 175,190 0,30 10,0 0,-30 -10,0"
           id="path3766"
           inkscape:connector-curvature="0"
           transform="translate(0,752.36218)" />
      </g>
      <path
         sodipodi:nodetypes="ccccccccccc"
         inkscape:connector-curvature="0"
         id="path3768"
         d="m 215.30238,932.23973 -20,0 0,40 10,0 0,-17 10,0 0,-10 -10,0 0,-3 10,0 z"
         style="fill:#ffffff;fill-opacity:1;stroke:none" />
      <path
         inkscape:connector-curvature="0"
         id="path3772"
         d="m 254.54779,932.23973 0,40 20,0 0,-10 -10,0 0,-30 -10,0"
         style="fill:#ffffff;fill-opacity:1;stroke:none" />
      <path
         inkscape:connector-curvature="0"
         id="path3774"
         d="m 284.17047,932.23973 0,40 c 0,0 10,0 10,0 l 0,-40 z"
         style="fill:#ffffff;fill-opacity:1;stroke:none" />
      <g
         transform="translate(-6.2068515,-0.12245388)"
         id="g3787">
        <path
           style="fill:#ffffff;fill-opacity:1;stroke:none"
           d="m 81.413703,932.36218 0,40 10,0 0,-20 c 0,0 9.586297,-2 9.999997,-10 0.51688,-9.9952 -9.999997,-10 -9.999997,-10 l -10,0"
           id="path3780"
           inkscape:connector-curvature="0"
           sodipodi:nodetypes="ccccscc" />
        <path
           style="fill:#272727;fill-opacity:1;stroke:none"
           d="m 90.946429,936.36218 c 0,0 5,0 6,5.01786 0,2.98214 -2,5.96428 -6,5.98214 z"
           id="path3777"
           inkscape:connector-curvature="0"
           sodipodi:nodetypes="cccc" />
      </g>
      <g
         transform="translate(-5.1520114,-0.12245388)"
         id="g3791">
        <path
           sodipodi:type="arc"
           style="fill:#ffffff;fill-opacity:1;stroke:none"
           id="path3758"
           sodipodi:cx="120"
           sodipodi:cy="200"
           sodipodi:rx="10"
           sodipodi:ry="20"
           d="m 130,200 c 0,11.04569 -4.47715,20 -10,20 -5.52285,0 -10,-8.95431 -10,-20 0,-11.04569 4.47715,-20 10,-20 5.52285,0 10,8.95431 10,20 z"
           transform="translate(0,752.36218)" />
        <path
           style="fill:#272727;fill-opacity:1;stroke:none"
           d="m 120,936.98272 c 3,0 2,14 2,22 -0.0893,11.67857 -4.08929,11.67857 -4,0 0,0 -1,-22 2,-22 z"
           id="path3779"
           inkscape:connector-curvature="0"
           sodipodi:nodetypes="scss" />
      </g>
      <g
         transform="translate(-4.9430155,-0.12245388)"
         id="g3795">
        <path
           sodipodi:nodetypes="ccccccscc"
           inkscape:connector-curvature="0"
           id="path3762"
           d="m 139.4137,932.36218 c 0,0 0.5863,30 0,40 10.5863,0 9.5863,1 9.5863,-12 l 1,0 c 0,15 0,12 10,12 0,-18 -6,-20 -6,-20 0,0 7,0 7,-10 0,-10.01717 -11.5863,-10 -11.5863,-10 l -10,0"
           style="fill:#ffffff;fill-opacity:1;stroke:none" />
        <path
           sodipodi:nodetypes="cccc"
           inkscape:connector-curvature="0"
           id="path3781"
           d="m 150.94643,936.36218 c 0,0 5,0 6,5.01786 0,2.98214 -2,5.96428 -6,5.98214 z"
           style="fill:#272727;fill-opacity:1;stroke:none" />
      </g>
      <g
         transform="translate(-5.074924,-0.12245388)"
         id="g3799">
        <path
           sodipodi:type="arc"
           style="fill:#ffffff;fill-opacity:1;stroke:none"
           id="path3770"
           sodipodi:cx="120"
           sodipodi:cy="200"
           sodipodi:rx="10"
           sodipodi:ry="20"
           d="m 130,200 c 0,11.04569 -4.47715,20 -10,20 -5.52285,0 -10,-8.95431 -10,-20 0,-11.04569 4.47715,-20 10,-20 5.52285,0 10,8.95431 10,20 z"
           transform="translate(120,752.36218)" />
        <path
           sodipodi:nodetypes="scss"
           inkscape:connector-curvature="0"
           id="path3783"
           d="m 240,936.98272 c 3,0 2,14 2,22 -0.0893,11.67857 -4.08929,11.67857 -4,0 0,0 -1,-22 2,-22 z"
           style="fill:#272727;fill-opacity:1;stroke:none" />
      </g>
      <g
         transform="translate(-6.2068515,-0.12245388)"
         id="g3803">
        <path
           transform="translate(200,752.36218)"
           d="m 130,200 c 0,11.04569 -4.47715,20 -10,20 -5.52285,0 -10,-8.95431 -10,-20 0,-11.04569 4.47715,-20 10,-20 5.52285,0 10,8.95431 10,20 z"
           sodipodi:ry="20"
           sodipodi:rx="10"
           sodipodi:cy="200"
           sodipodi:cx="120"
           id="path3760"
           style="fill:#ffffff;fill-opacity:1;stroke:none"
           sodipodi:type="arc" />
        <path
           style="fill:#272727;fill-opacity:1;stroke:none"
           d="m 320,936.98272 c 3,0 2,14 2,22 -0.0893,11.67857 -4.08929,11.67857 -4,0 0,0 -1,-22 2,-22 z"
           id="path3785"
           inkscape:connector-curvature="0"
           sodipodi:nodetypes="scss" />
      </g>
      <path
         sodipodi:nodetypes="cc"
         inkscape:connector-curvature="0"
         id="path3866"
         d="m 149.5,832.36218 c -100,146.66667 -50,73.33333 0,0 z"
         style="fill:#dddfd4;fill-opacity:1;stroke:none" />
      <path
         transform="matrix(0.96997686,0.24319718,-0.24319718,0.96997686,18.191449,714.15271)"
         d="m 180,90 c 0,11.04569 -8.95431,20 -20,20 -11.04569,0 -20,-8.95431 -20,-20 0,-11.045695 8.95431,-20 20,-20 11.04569,0 20,8.954305 20,20 z"
         sodipodi:ry="20"
         sodipodi:rx="20"
         sodipodi:cy="90"
         sodipodi:cx="160"
         id="path3868"
         style="fill:#dddfd4;fill-opacity:1;stroke:none"
         sodipodi:type="arc" />
      <path
         sodipodi:open="true"
         sodipodi:end="5.7855702"
         sodipodi:start="0"
         transform="matrix(0.99738542,0.07226562,-0.05871582,0.81037565,20.434187,729.28771)"
         d="m 151,125 c 0,13.25483 -7.16344,24 -16,24 -8.83656,0 -16,-10.74517 -16,-24 0,-13.25483 7.16344,-24 16,-24 5.86504,0 11.26001,4.81343 14.05958,12.54405"
         sodipodi:ry="24"
         sodipodi:rx="16"
         sodipodi:cy="125"
         sodipodi:cx="135"
         id="path3870"
         style="fill:#ffffff;fill-opacity:1;stroke:none"
         sodipodi:type="arc" />
      <path
         sodipodi:nodetypes="cccc"
         inkscape:connector-curvature="0"
         id="path3925"
         d="M 90.5,992.36218 75.45495,992.35718 80.5,1022.3622 z"
         style="fill:#f24d37;fill-opacity:1;stroke:none" />
    </g>
  </g>
</svg>
