<?xml version="1.0" encoding="UTF-8" standalone="no"?>
<!-- Created with Inkscape (http://www.inkscape.org/) -->

<svg
   xmlns:dc="http://purl.org/dc/elements/1.1/"
   xmlns:cc="http://creativecommons.org/ns#"
   xmlns:rdf="http://www.w3.org/1999/02/22-rdf-syntax-ns#"
   xmlns:svg="http://www.w3.org/2000/svg"
   xmlns="http://www.w3.org/2000/svg"
   xmlns:sodipodi="http://sodipodi.sourceforge.net/DTD/sodipodi-0.dtd"
   xmlns:inkscape="http://www.inkscape.org/namespaces/inkscape"
   width="290"
   height="200"
   id="svg2"
   version="1.1"
   inkscape:version="0.48.4 r9939"
   sodipodi:docname="Saint_bernard.svg"
   inkscape:export-filename="/home/elena/Documents/Office/Inkscape/My works/dribble/Saint Bernard/my_saint_bernard.png"
   inkscape:export-xdpi="90"
   inkscape:export-ydpi="90">
  <defs
     id="defs4" />
  <sodipodi:namedview
     id="base"
     pagecolor="#ffffff"
     bordercolor="#666666"
     borderopacity="1.0"
     inkscape:pageopacity="1"
     inkscape:pageshadow="2"
     inkscape:zoom="0.98994949"
     inkscape:cx="199.40373"
     inkscape:cy="21.372308"
     inkscape:document-units="px"
     inkscape:current-layer="layer1"
     showgrid="true"
     inkscape:window-width="1299"
     inkscape:window-height="744"
     inkscape:window-x="67"
     inkscape:window-y="24"
     inkscape:window-maximized="1"
     showguides="true"
     inkscape:guide-bbox="true">
    <inkscape:grid
       type="xygrid"
       id="grid2985"
       empspacing="10"
       visible="true"
       enabled="true"
       snapvisiblegridlinesonly="true" />
  </sodipodi:namedview>
  <metadata
     id="metadata7">
    <rdf:RDF>
      <cc:Work
         rdf:about="">
        <dc:format>image/svg+xml</dc:format>
        <dc:type
           rdf:resource="http://purl.org/dc/dcmitype/StillImage" />
        <dc:title></dc:title>
      </cc:Work>
    </rdf:RDF>
  </metadata>
  <g
     inkscape:label="Layer 1"
     inkscape:groupmode="layer"
     id="layer1"
     transform="translate(0,-852.36218)">
    <path
       style="fill:#82dbe1;fill-opacity:1;stroke:#82dbe1;stroke-width:2;stroke-miterlimit:4;stroke-opacity:1;stroke-dasharray:none"
       d="m 160,170 10,-10 c 2.66667,9.66667 4,12 9,25 z"
       id="path3759"
       inkscape:connector-curvature="0"
       transform="translate(0,852.36218)"
       sodipodi:nodetypes="cccc" />
    <path
       style="fill:#82dbe1;fill-opacity:1;stroke:#82dbe1;stroke-width:2;stroke-miterlimit:4;stroke-opacity:1;stroke-dasharray:none"
       d="m 30,190 70,0 -10,-40 30,10 -10,-40 z"
       id="path2989"
       inkscape:connector-curvature="0"
       transform="translate(0,852.36218)"
       sodipodi:nodetypes="cccccc" />
    <path
       style="fill:#d73125;fill-opacity:1;stroke:#d73125;stroke-width:2;stroke-miterlimit:4;stroke-opacity:1;stroke-dasharray:none"
       d="m 250,10 -20,0 -40,50 -100,0 -50,30 -30,0 20,40 10,-10 0,20 -10,10 0,40 80,-70 50,50 10,-10 40,30 10,-70 30,-30 0,-40 20,0 10,-10 0,-15 -20,0 z"
       id="path2983"
       inkscape:connector-curvature="0"
       transform="translate(0,852.36218)"
       sodipodi:nodetypes="ccccccccccccccccccccccc" />
    <path
       style="fill:#770303;fill-opacity:1;stroke:#770303;stroke-width:2;stroke-miterlimit:4;stroke-opacity:1;stroke-dasharray:none"
       d="m 280,877.36218 0,15 -10,10 -9,0 13,-10 0,-15 z"
       id="path3753"
       inkscape:connector-curvature="0"
       sodipodi:nodetypes="ccccccc" />
    <path
       style="fill:#770303;fill-opacity:1;stroke:#770303;stroke-width:2;stroke-miterlimit:4;stroke-opacity:1;stroke-dasharray:none"
       d="m 250,10 -20,0 -25,31 45,49 0,-8 -20,-22 20,-30 z"
       id="path3755"
       inkscape:connector-curvature="0"
       transform="translate(0,852.36218)"
       sodipodi:nodetypes="cccccccc" />
    <path
       style="fill:#770303;fill-opacity:1;stroke:#770303;stroke-width:2;stroke-miterlimit:4;stroke-opacity:1;stroke-dasharray:none"
       d="m 258,932.36218 c -13.02099,0.0301 -14.26915,20.31001 0,20 13.76805,0.35347 13.60578,-20.03146 0,-20 z"
       id="path3757"
       inkscape:connector-curvature="0"
       sodipodi:nodetypes="scs" />
    <path
       style="fill:#770303;fill-opacity:1;stroke:#770303;stroke-width:2;stroke-miterlimit:4;stroke-opacity:1;stroke-dasharray:none"
       d="m 90,60 -50,30 0,50 -10,10 0,25 70,-65 80,0 30,-30 -20,-20 z"
       id="path2987"
       inkscape:connector-curvature="0"
       transform="translate(0,852.36218)"
       sodipodi:nodetypes="cccccccccc" />
  </g>
</svg>
