<?xml version="1.0" encoding="UTF-8" standalone="no"?>
<!-- Created with Inkscape (http://www.inkscape.org/) -->

<svg
   xmlns:osb="http://www.openswatchbook.org/uri/2009/osb"
   xmlns:dc="http://purl.org/dc/elements/1.1/"
   xmlns:cc="http://creativecommons.org/ns#"
   xmlns:rdf="http://www.w3.org/1999/02/22-rdf-syntax-ns#"
   xmlns:svg="http://www.w3.org/2000/svg"
   xmlns="http://www.w3.org/2000/svg"
   xmlns:sodipodi="http://sodipodi.sourceforge.net/DTD/sodipodi-0.dtd"
   xmlns:inkscape="http://www.inkscape.org/namespaces/inkscape"
   width="270"
   height="245"
   id="svg2"
   version="1.1"
   inkscape:version="0.48.4 r9939"
   sodipodi:docname="toronto.svg"
   inkscape:export-filename="/home/elena/Documents/Office/Inkscape/My works/dribble/Toronto/my_toronto.png"
   inkscape:export-xdpi="90"
   inkscape:export-ydpi="90">
  <defs
     id="defs4">
    <linearGradient
       id="linearGradient5331"
       osb:paint="solid">
      <stop
         style="stop-color:#a9a9a9;stop-opacity:1;"
         offset="0"
         id="stop5333" />
    </linearGradient>
  </defs>
  <sodipodi:namedview
     id="base"
     pagecolor="#ffffff"
     bordercolor="#666666"
     borderopacity="1.0"
     inkscape:pageopacity="1"
     inkscape:pageshadow="2"
     inkscape:zoom="11.313708"
     inkscape:cx="56.76701"
     inkscape:cy="75.732328"
     inkscape:document-units="px"
     inkscape:current-layer="layer1"
     showgrid="true"
     inkscape:window-width="1299"
     inkscape:window-height="744"
     inkscape:window-x="67"
     inkscape:window-y="24"
     inkscape:window-maximized="1"
     showguides="true"
     inkscape:guide-bbox="true">
    <inkscape:grid
       type="xygrid"
       id="grid2985"
       empspacing="5"
       visible="true"
       enabled="true"
       snapvisiblegridlinesonly="true" />
  </sodipodi:namedview>
  <metadata
     id="metadata7">
    <rdf:RDF>
      <cc:Work
         rdf:about="">
        <dc:format>image/svg+xml</dc:format>
        <dc:type
           rdf:resource="http://purl.org/dc/dcmitype/StillImage" />
        <dc:title></dc:title>
      </cc:Work>
    </rdf:RDF>
  </metadata>
  <g
     inkscape:label="Layer 1"
     inkscape:groupmode="layer"
     id="layer1"
     transform="translate(0,-807.36218)">
    <g
       id="g3830"
       transform="translate(-21.794137,2)">
      <path
         sodipodi:nodetypes="ccc"
         transform="translate(0,807.36218)"
         inkscape:connector-curvature="0"
         id="path2987"
         d="m 105,170 c 0,0 -15,45 -15,60 -0.234745,7.98267 9.794137,8 9.794137,0"
         style="fill:none;stroke:#f3766f;stroke-width:5;stroke-linecap:butt;stroke-linejoin:miter;stroke-miterlimit:4;stroke-opacity:1;stroke-dasharray:none" />
      <path
         sodipodi:nodetypes="cccc"
         transform="translate(0,807.36218)"
         inkscape:connector-curvature="0"
         id="path3776"
         d="m 76.794137,156 c -8,3 -10.205863,14 0,14 6.794137,0 50.000003,0 50.000003,0 0,0 8.20586,0 8.20586,15"
         style="fill:none;stroke:#f3766f;stroke-width:5;stroke-linecap:butt;stroke-linejoin:miter;stroke-miterlimit:4;stroke-opacity:1;stroke-dasharray:none" />
    </g>
    <path
       style="fill:none;stroke:#f3766f;stroke-width:5;stroke-linecap:butt;stroke-linejoin:miter;stroke-miterlimit:4;stroke-opacity:1;stroke-dasharray:none"
       d="m 83.740023,1021.5824 c 5.55954,-13.9317 19.491207,-8.3721 13.93168,5.5595 -5.55954,13.9317 -19.491212,8.3722 -13.93168,-5.5595 z"
       id="path3778"
       inkscape:connector-curvature="0"
       sodipodi:nodetypes="scs" />
    <g
       id="g3788"
       transform="translate(-19.521294,3.2626907)">
      <g
         id="g3792"
         transform="matrix(0.97743927,0.21121664,-0.21121664,0.97743927,210.43994,-2.5551322)">
        <path
           sodipodi:nodetypes="cc"
           style="fill:none;stroke:#f3766f;stroke-width:5;stroke-linecap:butt;stroke-linejoin:miter;stroke-miterlimit:4;stroke-opacity:1;stroke-dasharray:none"
           d="m 135,200 0,24"
           id="path3784"
           inkscape:connector-curvature="0"
           transform="translate(0,807.36218)" />
        <path
           style="fill:none;stroke:#f3766f;stroke-width:5;stroke-linecap:butt;stroke-linejoin:miter;stroke-miterlimit:4;stroke-opacity:1;stroke-dasharray:none"
           d="m 150,208 c -0.58936,-15.00623 -14.35871,4.21912 -15,-3"
           id="path3786"
           inkscape:connector-curvature="0"
           transform="translate(0,807.36218)"
           sodipodi:nodetypes="cc" />
      </g>
    </g>
    <path
       sodipodi:nodetypes="scs"
       inkscape:connector-curvature="0"
       id="path3796"
       d="m 131.74002,1021.5824 c 5.55954,-13.9317 19.49121,-8.3721 13.93168,5.5595 -5.55954,13.9317 -19.49121,8.3722 -13.93168,-5.5595 z"
       style="fill:none;stroke:#f3766f;stroke-width:5;stroke-linecap:butt;stroke-linejoin:miter;stroke-miterlimit:4;stroke-opacity:1;stroke-dasharray:none" />
    <g
       id="g3802"
       transform="matrix(0.99854325,0.05395718,-0.05395718,0.99854325,77.848563,1.4716005)">
      <g
         transform="matrix(0.99846807,-0.05533096,0.05533096,0.99846807,-54.165541,9.324673)"
         id="g3808">
        <g
           transform="matrix(0.97877054,0.20495911,-0.20495911,0.97877054,208.49383,-6.7088355)"
           id="g3816">
          <path
             sodipodi:nodetypes="cc"
             style="fill:none;stroke:#f3766f;stroke-width:5;stroke-linecap:butt;stroke-linejoin:miter;stroke-miterlimit:4;stroke-opacity:1;stroke-dasharray:none"
             d="m 133,199.99725 0,24"
             id="path3804"
             inkscape:connector-curvature="0"
             transform="translate(0,807.36218)" />
          <path
             style="fill:none;stroke:#f3766f;stroke-width:5;stroke-linecap:butt;stroke-linejoin:miter;stroke-miterlimit:4;stroke-opacity:1;stroke-dasharray:none"
             d="m 163.52774,224.36589 c -0.0623,0.0129 -19.43011,15.97396 -14.97935,-15.02062 3.1288,-21.78862 -15.01858,-0.48638 -14.99999,-0.0206"
             id="path3806"
             inkscape:connector-curvature="0"
             transform="translate(0,807.36218)"
             sodipodi:nodetypes="csc" />
        </g>
        <path
           inkscape:connector-curvature="0"
           id="path3820"
           d="m 171.93173,972.41336 -12.72544,58.63504"
           style="fill:none;stroke:#f3766f;stroke-width:5;stroke-linecap:butt;stroke-linejoin:miter;stroke-miterlimit:4;stroke-opacity:1;stroke-dasharray:none" />
        <path
           sodipodi:nodetypes="ccsc"
           inkscape:connector-curvature="0"
           id="path3822"
           d="m 100.37284,994.64115 c 0,0 5.01377,-9.99311 10.01375,-9.98623 24.99998,0.0344 69.99993,0.0963 79.99992,0.11005 9.99999,0.0138 10.02063,-14.98622 0.0206,-14.99997"
           style="fill:none;stroke:#f3766f;stroke-width:5;stroke-linecap:butt;stroke-linejoin:miter;stroke-miterlimit:4;stroke-opacity:1;stroke-dasharray:none" />
      </g>
    </g>
    <path
       sodipodi:nodetypes="scs"
       inkscape:connector-curvature="0"
       id="path3828"
       d="m 197.74002,1021.5824 c 5.55954,-13.9317 19.49121,-8.3721 13.93168,5.5595 -5.55954,13.9317 -19.49121,8.3722 -13.93168,-5.5595 z"
       style="fill:none;stroke:#f3766f;stroke-width:5;stroke-linecap:butt;stroke-linejoin:miter;stroke-miterlimit:4;stroke-opacity:1;stroke-dasharray:none" />
    <path
       style="fill:none;fill-opacity:1;stroke:#3081b3;stroke-width:5;stroke-linecap:butt;stroke-linejoin:miter;stroke-miterlimit:4;stroke-opacity:1;stroke-dasharray:none"
       d="m 3,934.36218 180,0"
       id="path3874"
       inkscape:connector-curvature="0" />
    <path
       style="fill:none;stroke:#3081b3;stroke-width:5;stroke-linecap:butt;stroke-linejoin:miter;stroke-miterlimit:4;stroke-opacity:1;stroke-dasharray:none"
       d="m 1,971.36218 c 3.906318,-0.0841 4.6235437,-1.02896 10,-6 0,0 6,5 10,5 4,0 10,-5 10,-5 5,5 6,6 10,6"
       id="path3876"
       inkscape:connector-curvature="0"
       sodipodi:nodetypes="ccscc" />
    <path
       sodipodi:nodetypes="ccscccscc"
       inkscape:connector-curvature="0"
       id="path3005"
       d="m 55.564289,971.36218 c 4,0 5,-1 10,-6 0,0 6,5 10,5 4,0 10,-5 10,-5 6,4 5.92322,5 10,5 3.92322,0 4,-1 11.000001,-5 0,0 8,5 11.15357,5 3.84643,0 10,-5 10,-5 5,5 5.84643,6 10,6"
       style="fill:none;stroke:#3081b3;stroke-width:5;stroke-linecap:butt;stroke-linejoin:miter;stroke-miterlimit:4;stroke-opacity:1;stroke-dasharray:none" />
    <path
       style="fill:none;stroke:#3081b3;stroke-width:5;stroke-linecap:butt;stroke-linejoin:miter;stroke-miterlimit:4;stroke-opacity:1;stroke-dasharray:none"
       d="m 11,957.36218 c 4,0 5,-1 10,-6 0,0 6,5 10,5 4,0 10,-5 10,-5 6,4 5.92322,5 10,5 3.92322,0 4,-1 11,-5 0,0 8,5 11.15357,5 3.84643,0 10,-5 10,-5 5,5 5.84643,6 10,6"
       id="path3009"
       inkscape:connector-curvature="0"
       sodipodi:nodetypes="ccscccscc" />
    <path
       sodipodi:nodetypes="ccscccscc"
       inkscape:connector-curvature="0"
       id="path3011"
       d="m 106,957.36218 c 4,0 5,-1 10,-6 0,0 6,5 10,5 4,0 10,-5 10,-5 6,4 5.92322,5 10,5 3.92322,0 4,-1 11,-5 0,0 8,5 11.15357,5 3.84643,0 10,-5 10,-5 5,5 5.84643,6 10,6"
       style="fill:none;stroke:#3081b3;stroke-width:5;stroke-linecap:butt;stroke-linejoin:miter;stroke-miterlimit:4;stroke-opacity:1;stroke-dasharray:none" />
    <path
       sodipodi:nodetypes="ccscc"
       inkscape:connector-curvature="0"
       id="path3013"
       d="m 229,971.36218 c 3.90632,-0.0841 4.62354,-1.02896 10,-6 0,0 6,5 10,5 4,0 10,-5 10,-5 5,5 6,6 10,6"
       style="fill:none;stroke:#3081b3;stroke-width:5;stroke-linecap:butt;stroke-linejoin:miter;stroke-miterlimit:4;stroke-opacity:1;stroke-dasharray:none" />
    <path
       style="fill:none;stroke:#3081b3;stroke-width:5;stroke-linecap:butt;stroke-linejoin:miter;stroke-miterlimit:4;stroke-opacity:1;stroke-dasharray:none"
       d="m 152.28215,971.36218 c 4,0 5,-1 10,-6 0,0 6,5 10,5 4,0 10,-5 10,-5 6,4 5.92322,5 10,5 3.92322,0 4,-1 11,-5 0,0 8,5 11.15357,5"
       id="path3015"
       inkscape:connector-curvature="0"
       sodipodi:nodetypes="ccscccc" />
    <path
       sodipodi:nodetypes="ccscccc"
       inkscape:connector-curvature="0"
       id="path3017"
       d="m 201,957.36218 c 4,0 5,-1 10,-6 0,0 6,5 10,5 4,0 10,-5 10,-5 6,4 5.92322,5 10,5 3.92322,0 4,-1 11,-5 0,0 8,5 11.15357,5"
       style="fill:none;stroke:#3081b3;stroke-width:5;stroke-linecap:butt;stroke-linejoin:miter;stroke-miterlimit:4;stroke-opacity:1;stroke-dasharray:none" />
    <path
       style="fill:none;stroke:#3081b3;stroke-width:5;stroke-miterlimit:4;stroke-opacity:1;stroke-dasharray:none"
       d="m 230,105 0,-6"
       id="path5339"
       inkscape:connector-curvature="0"
       transform="translate(0,807.36218)"
       sodipodi:nodetypes="cc" />
    <path
       style="fill:none;stroke:#3081b3;stroke-width:5;stroke-linecap:butt;stroke-linejoin:miter;stroke-miterlimit:4;stroke-opacity:1;stroke-dasharray:none"
       d="m 185.56429,935.36218 c 4,0 5,-1 10,-6 0,0 6,5 10,5 4,0 10,-5 10,-5 6,4 5.92322,5 10,5 3.92322,0 4,-1 11,-5 0,0 8,5 11.15357,5 3.84643,0 10,-5 10,-5 5,5 5.84643,6 10,6"
       id="path3019"
       inkscape:connector-curvature="0"
       sodipodi:nodetypes="ccscccscc" />
    <path
       style="fill:none;stroke:#3081b3;stroke-width:5;stroke-miterlimit:4;stroke-opacity:1;stroke-dasharray:none"
       d="m 232,872.36218 0,-20"
       id="path5351"
       inkscape:connector-curvature="0"
       sodipodi:nodetypes="cc" />
    <g
       id="g5383">
      <g
         id="g5375">
        <path
           style="fill:none;stroke:#3081b3;stroke-width:5;stroke-linecap:butt;stroke-linejoin:miter;stroke-miterlimit:4;stroke-opacity:1;stroke-dasharray:none"
           d="m 202,932.36218 0,-20 60,0"
           id="path3081"
           inkscape:connector-curvature="0"
           sodipodi:nodetypes="ccc" />
        <path
           style="fill:none;stroke:#3081b3;stroke-width:5;stroke-linecap:butt;stroke-linejoin:miter;stroke-miterlimit:4;stroke-opacity:1;stroke-dasharray:none"
           d="m 202,922.36218 c 0,0 45,0 60,0 l 0,-15"
           id="path3851"
           inkscape:connector-curvature="0"
           sodipodi:nodetypes="ccc" />
        <path
           style="fill:none;stroke:#3081b3;stroke-width:5;stroke-miterlimit:4;stroke-opacity:1;stroke-dasharray:none"
           d="m 262,922.36218 c -0.58074,16.06018 -10,10 -10,15"
           id="path5337"
           inkscape:connector-curvature="0"
           sodipodi:nodetypes="cc" />
        <path
           style="fill:none;stroke:#3081b3;stroke-width:5;stroke-miterlimit:4;stroke-opacity:1;stroke-dasharray:none"
           d="m 207,904.36218 50,0 -5,-10 -40,0 z"
           id="path5341"
           inkscape:connector-curvature="0"
           sodipodi:nodetypes="ccccc" />
        <path
           sodipodi:nodetypes="cc"
           inkscape:connector-curvature="0"
           id="path5343"
           d="m 232,892.36218 0,-6"
           style="fill:none;stroke:#3081b3;stroke-width:5;stroke-miterlimit:4;stroke-opacity:1;stroke-dasharray:none" />
        <path
           inkscape:connector-curvature="0"
           id="path5345"
           d="m 217,884.36218 30,0 -5,-10 -20,0 z"
           style="fill:none;stroke:#3081b3;stroke-width:5;stroke-miterlimit:4;stroke-opacity:1;stroke-dasharray:none"
           sodipodi:nodetypes="ccccc" />
      </g>
      <path
         sodipodi:nodetypes="cccc"
         inkscape:connector-curvature="0"
         id="path5353"
         d="m 242,860.36218 -10,-8 0,15 z"
         style="fill:none;stroke:#3081b3;stroke-width:5;stroke-miterlimit:4;stroke-opacity:1;stroke-dasharray:none" />
    </g>
    <path
       style="fill:none;stroke:#3081b3;stroke-width:5;stroke-miterlimit:4;stroke-opacity:1;stroke-dasharray:none"
       d="m 5,927.36218 10,0"
       id="path3793"
       inkscape:connector-curvature="0" />
    <path
       inkscape:connector-curvature="0"
       id="path3795"
       d="m 5,921.36218 10,0"
       style="fill:none;stroke:#3081b3;stroke-width:5;stroke-miterlimit:4;stroke-opacity:1;stroke-dasharray:none" />
    <path
       style="fill:none;stroke:#3081b3;stroke-width:5;stroke-miterlimit:4;stroke-opacity:1;stroke-dasharray:none"
       d="m 5,915.36218 10,0"
       id="path3797"
       inkscape:connector-curvature="0" />
    <path
       style="fill:none;stroke:#3081b3;stroke-width:5;stroke-miterlimit:4;stroke-opacity:1;stroke-dasharray:none"
       d="m 5,909.36218 8,0 0,-35 7,0"
       id="path3801"
       inkscape:connector-curvature="0"
       sodipodi:nodetypes="cccc" />
    <path
       style="fill:none;stroke:#3081b3;stroke-width:5;stroke-miterlimit:4;stroke-opacity:1;stroke-dasharray:none"
       d="m 20,122 0,-82 25,0 c 0,13.333333 0,20 0,30"
       id="path3803"
       inkscape:connector-curvature="0"
       transform="translate(0,807.36218)"
       sodipodi:nodetypes="cccc" />
    <path
       style="fill:none;stroke:#3081b3;stroke-width:5;stroke-miterlimit:4;stroke-opacity:1;stroke-dasharray:none"
       d="m 25,880.36218 5,0"
       id="path3809"
       inkscape:connector-curvature="0" />
    <path
       inkscape:connector-curvature="0"
       id="path3811"
       d="m 25,890.36218 5,0"
       style="fill:none;stroke:#3081b3;stroke-width:5;stroke-miterlimit:4;stroke-opacity:1;stroke-dasharray:none" />
    <path
       inkscape:connector-curvature="0"
       id="path3815"
       d="m 35,880.36218 5,0"
       style="fill:none;stroke:#3081b3;stroke-width:5;stroke-miterlimit:4;stroke-opacity:1;stroke-dasharray:none" />
    <g
       id="g3879">
      <path
         inkscape:connector-curvature="0"
         id="path3805"
         d="m 25,860.36218 5,0"
         style="fill:none;stroke:#3081b3;stroke-width:5;stroke-miterlimit:4;stroke-opacity:1;stroke-dasharray:none" />
      <path
         style="fill:none;stroke:#3081b3;stroke-width:5;stroke-miterlimit:4;stroke-opacity:1;stroke-dasharray:none"
         d="m 25,870.36218 5,0"
         id="path3807"
         inkscape:connector-curvature="0" />
      <path
         inkscape:connector-curvature="0"
         id="path3817"
         d="m 35,870.36218 5,0"
         style="fill:none;stroke:#3081b3;stroke-width:5;stroke-miterlimit:4;stroke-opacity:1;stroke-dasharray:none" />
      <path
         style="fill:none;stroke:#3081b3;stroke-width:5;stroke-miterlimit:4;stroke-opacity:1;stroke-dasharray:none"
         d="m 35,860.36218 5,0"
         id="path3819"
         inkscape:connector-curvature="0" />
    </g>
    <path
       style="fill:none;stroke:#3081b3;stroke-width:5;stroke-miterlimit:4;stroke-opacity:1;stroke-dasharray:none"
       d="m 30,929.36218 0,-12 62,0 c 0,0 0,-30 -25,-30 -25,0 -25,25 -25,25"
       id="path3832"
       inkscape:connector-curvature="0"
       sodipodi:nodetypes="cccsc" />
    <path
       style="fill:none;stroke:#3081b3;stroke-width:5;stroke-miterlimit:4;stroke-opacity:1;stroke-dasharray:none"
       d="m 62,910.36218 c 0,0 0,-5 5,-5 5,0 5,5 5,5 -4.044112,-0.23693 -7.037141,-0.12349 -10,0 z"
       id="path3834"
       inkscape:connector-curvature="0"
       sodipodi:nodetypes="cscc" />
    <path
       style="fill:none;stroke:#3081b3;stroke-width:5;stroke-miterlimit:4;stroke-opacity:1;stroke-dasharray:none"
       d="m 82,912.36218 c 0,0 0,-15 -15,-15 -15,0 -15,15 -15,15"
       id="path3836"
       inkscape:connector-curvature="0"
       sodipodi:nodetypes="csc" />
    <path
       style="fill:none;stroke:#3081b3;stroke-width:5;stroke-miterlimit:4;stroke-opacity:1;stroke-dasharray:none"
       d="m 102,122 0,-17 c 0,0 -0.25,-35 -34,-35 -33.75,0 -38,35 -38,35"
       id="path3846"
       inkscape:connector-curvature="0"
       transform="translate(0,807.36218)"
       sodipodi:nodetypes="cczc" />
    <path
       style="fill:none;stroke:#3081b3;stroke-width:5;stroke-miterlimit:4;stroke-opacity:1;stroke-dasharray:none"
       d="m 35,925.36218 10,0"
       id="path3854"
       inkscape:connector-curvature="0"
       sodipodi:nodetypes="cc" />
    <path
       style="fill:none;stroke:#3081b3;stroke-width:5;stroke-miterlimit:4;stroke-opacity:1;stroke-dasharray:none"
       d="m 50,118 5,0"
       id="path3856"
       inkscape:connector-curvature="0"
       transform="translate(0,807.36218)" />
    <path
       style="fill:none;stroke:#3081b3;stroke-width:5;stroke-miterlimit:4;stroke-opacity:1;stroke-dasharray:none"
       d="m 60,118 c 11.333333,0 280.16229,0 35,0"
       id="path3858"
       inkscape:connector-curvature="0"
       transform="translate(0,807.36218)"
       sodipodi:nodetypes="cc" />
    <path
       style="fill:none;stroke:#3081b3;stroke-width:5;stroke-miterlimit:4;stroke-opacity:1;stroke-dasharray:none"
       d="m 90,70 5,-40 10,0 10,90"
       id="path3860"
       inkscape:connector-curvature="0"
       transform="translate(0,807.36218)"
       sodipodi:nodetypes="cccc" />
    <path
       style="fill:none;stroke:#3081b3;stroke-width:5;stroke-miterlimit:4;stroke-opacity:1;stroke-dasharray:none"
       d="m 100,857.86218 5,0"
       id="path3862"
       inkscape:connector-curvature="0"
       sodipodi:nodetypes="cc" />
    <path
       style="fill:none;stroke:#3081b3;stroke-width:5;stroke-miterlimit:4;stroke-opacity:1;stroke-dasharray:none"
       d="m 100,82 10,0"
       id="path3868"
       inkscape:connector-curvature="0"
       transform="translate(0,807.36218)"
       sodipodi:nodetypes="cc" />
    <path
       style="fill:none;stroke:#3081b3;stroke-width:5;stroke-miterlimit:4;stroke-opacity:1;stroke-dasharray:none"
       d="m 100,878.86218 10,0"
       id="path3870"
       inkscape:connector-curvature="0"
       sodipodi:nodetypes="cc" />
    <path
       style="fill:none;stroke:#3081b3;stroke-width:5;stroke-miterlimit:4;stroke-opacity:1;stroke-dasharray:none"
       d="m 100,868.36218 10,0"
       id="path3872"
       inkscape:connector-curvature="0"
       sodipodi:nodetypes="cc" />
    <path
       style="fill:none;stroke:#3081b3;stroke-width:5;stroke-miterlimit:4;stroke-opacity:1;stroke-dasharray:none"
       d="m 100,40 5,0"
       id="path3875"
       inkscape:connector-curvature="0"
       transform="translate(0,807.36218)" />
    <path
       style="fill:none;stroke:#3081b3;stroke-width:5;stroke-miterlimit:4;stroke-opacity:1;stroke-dasharray:none"
       d="m 120,120 0,-35 45,0 0,35"
       id="path3877"
       inkscape:connector-curvature="0"
       transform="translate(0,807.36218)"
       sodipodi:nodetypes="cccc" />
    <g
       id="g3885"
       transform="translate(100,44)">
      <path
         style="fill:none;stroke:#3081b3;stroke-width:5;stroke-miterlimit:4;stroke-opacity:1;stroke-dasharray:none"
         d="m 25,861.36218 5,0"
         id="path3887"
         inkscape:connector-curvature="0"
         sodipodi:nodetypes="cc" />
      <path
         inkscape:connector-curvature="0"
         id="path3889"
         d="m 25,871.36218 5,0"
         style="fill:none;stroke:#3081b3;stroke-width:5;stroke-miterlimit:4;stroke-opacity:1;stroke-dasharray:none"
         sodipodi:nodetypes="cc" />
      <path
         style="fill:none;stroke:#3081b3;stroke-width:5;stroke-miterlimit:4;stroke-opacity:1;stroke-dasharray:none"
         d="m 35,871.36218 5,0"
         id="path3891"
         inkscape:connector-curvature="0"
         sodipodi:nodetypes="cc" />
      <path
         inkscape:connector-curvature="0"
         id="path3893"
         d="m 35,861.36218 5,0"
         style="fill:none;stroke:#3081b3;stroke-width:5;stroke-miterlimit:4;stroke-opacity:1;stroke-dasharray:none"
         sodipodi:nodetypes="cc" />
    </g>
    <g
       transform="translate(120,44)"
       id="g3895">
      <path
         sodipodi:nodetypes="cc"
         inkscape:connector-curvature="0"
         id="path3897"
         d="m 25,861.36218 5,0"
         style="fill:none;stroke:#3081b3;stroke-width:5;stroke-miterlimit:4;stroke-opacity:1;stroke-dasharray:none" />
      <path
         sodipodi:nodetypes="cc"
         style="fill:none;stroke:#3081b3;stroke-width:5;stroke-miterlimit:4;stroke-opacity:1;stroke-dasharray:none"
         d="m 25,871.36218 5,0"
         id="path3899"
         inkscape:connector-curvature="0" />
      <path
         sodipodi:nodetypes="cc"
         inkscape:connector-curvature="0"
         id="path3901"
         d="m 35,871.36218 5,0"
         style="fill:none;stroke:#3081b3;stroke-width:5;stroke-miterlimit:4;stroke-opacity:1;stroke-dasharray:none" />
      <path
         sodipodi:nodetypes="cc"
         style="fill:none;stroke:#3081b3;stroke-width:5;stroke-miterlimit:4;stroke-opacity:1;stroke-dasharray:none"
         d="m 35,861.36218 5,0"
         id="path3903"
         inkscape:connector-curvature="0" />
    </g>
    <path
       style="fill:none;stroke:#3081b3;stroke-width:5;stroke-miterlimit:4;stroke-opacity:1;stroke-dasharray:none"
       d="m 145,85 0,-10"
       id="path3905"
       inkscape:connector-curvature="0"
       transform="translate(0,807.36218)"
       sodipodi:nodetypes="cc" />
    <path
       style="fill:none;stroke:#3081b3;stroke-width:5;stroke-miterlimit:4;stroke-opacity:1;stroke-dasharray:none"
       d="m 155,85 0,-15"
       id="path3907"
       inkscape:connector-curvature="0"
       transform="translate(0,807.36218)" />
    <path
       style="fill:none;stroke:#3081b3;stroke-width:5;stroke-miterlimit:4;stroke-opacity:1;stroke-dasharray:none"
       d="m 165,80 0,-55 -35,15 0,40"
       id="path3909"
       inkscape:connector-curvature="0"
       transform="translate(0,807.36218)"
       sodipodi:nodetypes="cccc" />
    <path
       style="fill:none;stroke:#3081b3;stroke-width:5;stroke-miterlimit:4;stroke-opacity:1;stroke-dasharray:none"
       d="m 130,55 -10,0 0,25"
       id="path3911"
       inkscape:connector-curvature="0"
       transform="translate(0,807.36218)" />
    <path
       style="fill:none;stroke:#3081b3;stroke-width:5;stroke-miterlimit:4;stroke-opacity:1;stroke-dasharray:none"
       d="m 140,55 15,0"
       id="path3913"
       inkscape:connector-curvature="0"
       transform="translate(0,807.36218)" />
    <path
       style="fill:none;stroke:#3081b3;stroke-width:5;stroke-miterlimit:4;stroke-opacity:1;stroke-dasharray:none"
       d="m 140,65 15,0"
       id="path3917"
       inkscape:connector-curvature="0"
       transform="translate(0,807.36218)" />
    <path
       style="fill:none;stroke:#3081b3;stroke-width:5;stroke-miterlimit:4;stroke-opacity:1;stroke-dasharray:none"
       d="m 140,45 15,0"
       id="path3919"
       inkscape:connector-curvature="0"
       transform="translate(0,807.36218)" />
    <path
       style="fill:none;stroke:#3081b3;stroke-width:5;stroke-miterlimit:4;stroke-opacity:1;stroke-dasharray:none"
       d="m 170,80 15,-15 0,55"
       id="path3921"
       inkscape:connector-curvature="0"
       transform="translate(0,807.36218)"
       sodipodi:nodetypes="ccc" />
    <path
       style="fill:none;stroke:#3081b3;stroke-width:5;stroke-miterlimit:4;stroke-opacity:1;stroke-dasharray:none"
       d="m 170,90 10,0"
       id="path3923"
       inkscape:connector-curvature="0"
       transform="translate(0,807.36218)" />
    <path
       style="fill:none;stroke:#3081b3;stroke-width:5;stroke-miterlimit:4;stroke-opacity:1;stroke-dasharray:none"
       d="m 170,100 10,0"
       id="path3925"
       inkscape:connector-curvature="0"
       transform="translate(0,807.36218)" />
    <path
       style="fill:none;stroke:#3081b3;stroke-width:5;stroke-miterlimit:4;stroke-opacity:1;stroke-dasharray:none"
       d="m 170,110 10,0"
       id="path3927"
       inkscape:connector-curvature="0"
       transform="translate(0,807.36218)" />
    <g
       id="g3943"
       transform="translate(0,2)">
      <path
         sodipodi:nodetypes="csc"
         inkscape:connector-curvature="0"
         id="path3929"
         d="m 90,827.36218 c 0,0 -5,5.19531 10,5.19531 15,0 10,-5.19531 10,-5.19531"
         style="fill:none;stroke:#3081b3;stroke-width:5;stroke-miterlimit:4;stroke-opacity:1;stroke-dasharray:none" />
      <path
         style="fill:none;stroke:#3081b3;stroke-width:5;stroke-miterlimit:4;stroke-opacity:1;stroke-dasharray:none"
         d="m 90,819.36218 c 0,0 -5,-6 10,-6 15,0 10,6 10,6"
         id="path3931"
         inkscape:connector-curvature="0"
         sodipodi:nodetypes="csc" />
      <path
         inkscape:connector-curvature="0"
         id="path3933"
         d="m 85,820.36218 0,5 30,0 0,-5 z"
         style="fill:none;stroke:#3081b3;stroke-width:5;stroke-miterlimit:4;stroke-opacity:1;stroke-dasharray:none"
         sodipodi:nodetypes="ccccc" />
    </g>
    <path
       style="fill:none;stroke:#3081b3;stroke-width:5;stroke-miterlimit:4;stroke-opacity:1;stroke-dasharray:none"
       d="m 100,10 0,-20"
       id="path3948"
       inkscape:connector-curvature="0"
       transform="translate(0,807.36218)" />
    <path
       style="fill:none;stroke:#3081b3;stroke-width:5;stroke-miterlimit:4;stroke-opacity:1;stroke-dasharray:none"
       d="m 40,35 c 0,-5 5,-10 10,-10 5,0 10,5 10,10 0,5 -5,10 -10,10"
       id="path3950"
       inkscape:connector-curvature="0"
       transform="translate(0,807.36218)"
       sodipodi:nodetypes="czsc" />
    <path
       style="fill:none;stroke:#3081b3;stroke-width:5;stroke-miterlimit:4;stroke-opacity:1;stroke-dasharray:none"
       d="M 40,30 35,25"
       id="path3952"
       inkscape:connector-curvature="0"
       transform="translate(0,807.36218)" />
    <path
       style="fill:none;stroke:#3081b3;stroke-width:5;stroke-miterlimit:4;stroke-opacity:1;stroke-dasharray:none"
       d="M 30,20 20,10"
       id="path3954"
       inkscape:connector-curvature="0"
       transform="translate(0,807.36218)"
       sodipodi:nodetypes="cc" />
    <path
       style="fill:none;stroke:#3081b3;stroke-width:5;stroke-miterlimit:4;stroke-opacity:1;stroke-dasharray:none"
       d="M 50,25 50,10"
       id="path3956"
       inkscape:connector-curvature="0"
       transform="translate(0,807.36218)" />
    <path
       style="fill:none;stroke:#3081b3;stroke-width:5;stroke-miterlimit:4;stroke-opacity:1;stroke-dasharray:none"
       d="M 50,5 50,0"
       id="path3958"
       inkscape:connector-curvature="0"
       transform="translate(0,807.36218)" />
    <path
       style="fill:none;stroke:#3081b3;stroke-width:5;stroke-miterlimit:4;stroke-opacity:1;stroke-dasharray:none"
       d="m 60,30 5,-5"
       id="path3960"
       inkscape:connector-curvature="0"
       transform="translate(0,807.36218)" />
    <path
       style="fill:none;stroke:#3081b3;stroke-width:5;stroke-miterlimit:4;stroke-opacity:1;stroke-dasharray:none"
       d="M 70,20 80,10"
       id="path3962"
       inkscape:connector-curvature="0"
       transform="translate(0,807.36218)"
       sodipodi:nodetypes="cc" />
    <path
       style="fill:none;stroke:#3081b3;stroke-width:5;stroke-miterlimit:4;stroke-opacity:1;stroke-dasharray:none"
       d="M 55,45 70,60"
       id="path3964"
       inkscape:connector-curvature="0"
       transform="translate(0,807.36218)"
       sodipodi:nodetypes="cc" />
    <path
       style="fill:none;stroke:#3081b3;stroke-width:5;stroke-miterlimit:4;stroke-opacity:1;stroke-dasharray:none"
       d="m 60,35 5,0"
       id="path3966"
       inkscape:connector-curvature="0"
       transform="translate(0,807.36218)" />
    <path
       style="fill:none;stroke:#3081b3;stroke-width:5;stroke-miterlimit:4;stroke-opacity:1;stroke-dasharray:none"
       d="m 70,35 15,0"
       id="path3968"
       inkscape:connector-curvature="0"
       transform="translate(0,807.36218)"
       sodipodi:nodetypes="cc" />
    <path
       style="fill:none;stroke:#3081b3;stroke-width:5;stroke-miterlimit:4;stroke-opacity:1;stroke-dasharray:none"
       d="m 234,843.36218 c 0,0 0,-10 10,0 10,-10 10,0 10,0"
       id="path3970"
       inkscape:connector-curvature="0"
       sodipodi:nodetypes="ccc" />
    <path
       sodipodi:nodetypes="ccc"
       inkscape:connector-curvature="0"
       id="path3972"
       d="m 204,833.36218 c 0,0 0,-10 10,0 10,-10 10,0 10,0"
       style="fill:none;stroke:#3081b3;stroke-width:5;stroke-miterlimit:4;stroke-opacity:1;stroke-dasharray:none" />
    <path
       style="fill:none;stroke:#3081b3;stroke-width:5;stroke-miterlimit:4;stroke-opacity:1;stroke-dasharray:none"
       d="m 58,805.36218 c 0,0 0,-10 10,0 10,-10 10,0 10,0"
       id="path3974"
       inkscape:connector-curvature="0"
       sodipodi:nodetypes="ccc" />
  </g>
</svg>
