<?xml version="1.0" encoding="UTF-8" standalone="no"?>
<!-- Created with Inkscape (http://www.inkscape.org/) -->

<svg
   xmlns:dc="http://purl.org/dc/elements/1.1/"
   xmlns:cc="http://creativecommons.org/ns#"
   xmlns:rdf="http://www.w3.org/1999/02/22-rdf-syntax-ns#"
   xmlns:svg="http://www.w3.org/2000/svg"
   xmlns="http://www.w3.org/2000/svg"
   xmlns:sodipodi="http://sodipodi.sourceforge.net/DTD/sodipodi-0.dtd"
   xmlns:inkscape="http://www.inkscape.org/namespaces/inkscape"
   width="744.09448819"
   height="1052.3622047"
   id="svg2"
   version="1.1"
   inkscape:version="0.48.4 r9939"
   sodipodi:docname="whisly_1.svg"
   inkscape:export-filename="/home/elena/Documents/Office/Inkscape/My works/dribble/Whisly/my_whisly_1.png"
   inkscape:export-xdpi="90"
   inkscape:export-ydpi="90">
  <defs
     id="defs4" />
  <sodipodi:namedview
     id="base"
     pagecolor="#e04e4f"
     bordercolor="#666666"
     borderopacity="1.0"
     inkscape:pageopacity="1"
     inkscape:pageshadow="2"
     inkscape:zoom="0.25"
     inkscape:cx="-147.28053"
     inkscape:cy="895.10028"
     inkscape:document-units="px"
     inkscape:current-layer="layer1"
     showgrid="true"
     inkscape:window-width="1299"
     inkscape:window-height="744"
     inkscape:window-x="67"
     inkscape:window-y="24"
     inkscape:window-maximized="1">
    <inkscape:grid
       type="xygrid"
       id="grid3004"
       empspacing="5"
       visible="false"
       enabled="true"
       snapvisiblegridlinesonly="true" />
  </sodipodi:namedview>
  <metadata
     id="metadata7">
    <rdf:RDF>
      <cc:Work
         rdf:about="">
        <dc:format>image/svg+xml</dc:format>
        <dc:type
           rdf:resource="http://purl.org/dc/dcmitype/StillImage" />
        <dc:title></dc:title>
      </cc:Work>
    </rdf:RDF>
  </metadata>
  <g
     inkscape:label="Layer 1"
     inkscape:groupmode="layer"
     id="layer1">
    <g
       id="g3804">
      <path
         sodipodi:nodetypes="cczc"
         inkscape:connector-curvature="0"
         id="path3008"
         d="m 370,547.36218 c -100,0 -100,-75 -100,-105 0,-70 100,-70 100,0 0,70 0,80 0,105 z"
         style="fill:#e04e4f;fill-opacity:1;stroke:#873132;stroke-width:10;stroke-miterlimit:4;stroke-opacity:1;stroke-dasharray:none" />
      <g
         id="g3796">
        <g
           id="g3792">
          <path
             sodipodi:nodetypes="czczcc"
             inkscape:connector-curvature="0"
             id="path2984"
             d="m 319,432.36218 c 0,0 -19,-30 -39,-10 -20,20 0,40.00001 40,60 40,-19.99999 60,-40 40,-60 -20,-20 -39,10 -39,10 z"
             style="fill:#ffffff;stroke:#873132;stroke-width:10;stroke-linecap:butt;stroke-linejoin:miter;stroke-miterlimit:4;stroke-opacity:1;stroke-dasharray:none" />
          <path
             sodipodi:nodetypes="csc"
             inkscape:connector-curvature="0"
             id="path3758"
             d="m 275,427.36218 c -1,8.00001 -18.33861,25.16467 48,56 36.28827,16.86742 39.5,59 47,64"
             style="fill:none;stroke:#843030;stroke-width:10;stroke-linecap:butt;stroke-linejoin:miter;stroke-miterlimit:4;stroke-opacity:1;stroke-dasharray:none" />
        </g>
        <g
           id="g3788">
          <path
             transform="matrix(0.75,0,0,0.75,87.5,107.09054)"
             d="m 290,442.36218 a 10,10 0 1 1 -20,0 10,10 0 1 1 20,0 z"
             sodipodi:ry="10"
             sodipodi:rx="10"
             sodipodi:cy="442.36218"
             sodipodi:cx="280"
             id="path3754"
             style="fill:#873132;fill-opacity:1;stroke:none"
             sodipodi:type="arc" />
          <path
             sodipodi:type="arc"
             style="fill:#873132;fill-opacity:1;stroke:none"
             id="path3756"
             sodipodi:cx="280"
             sodipodi:cy="442.36218"
             sodipodi:rx="10"
             sodipodi:ry="10"
             d="m 290,442.36218 a 10,10 0 1 1 -20,0 10,10 0 1 1 20,0 z"
             transform="matrix(0.75,0,0,0.75,133.5,107.09054)" />
        </g>
      </g>
    </g>
  </g>
</svg>
